%TF.GenerationSoftware,KiCad,Pcbnew,7.0.6*%
%TF.CreationDate,2024-02-05T15:04:08-06:00*%
%TF.ProjectId,TopProbeCard,546f7050-726f-4626-9543-6172642e6b69,rev?*%
%TF.SameCoordinates,Original*%
%TF.FileFunction,Drillmap*%
%TF.FilePolarity,Positive*%
%FSLAX45Y45*%
G04 Gerber Fmt 4.5, Leading zero omitted, Abs format (unit mm)*
G04 Created by KiCad (PCBNEW 7.0.6) date 2024-02-05 15:04:08*
%MOMM*%
%LPD*%
G01*
G04 APERTURE LIST*
%ADD10C,0.100000*%
%ADD11C,0.010000*%
%ADD12C,0.200000*%
G04 APERTURE END LIST*
D10*
X8400000Y-3472500D02*
X8400000Y-3772500D01*
D11*
X11000000Y-10627500D02*
X11000000Y-5372500D01*
D10*
X8500000Y-3872500D02*
X9500000Y-3872500D01*
D11*
X5500000Y-3872500D02*
G75*
G03*
X4000000Y-5372500I-1J-1499999D01*
G01*
X5618856Y-6370924D02*
G75*
G03*
X5734230Y-6246530I18854J98215D01*
G01*
X5762328Y-6147407D02*
G75*
G03*
X5734230Y-6246530I68402J-72933D01*
G01*
X5758195Y-11275000D02*
G75*
G03*
X5758195Y-11275000I-163195J0D01*
G01*
D10*
X8400000Y-3772500D02*
G75*
G03*
X8500000Y-3872500I100010J10D01*
G01*
D11*
X7663195Y-4725000D02*
G75*
G03*
X7663195Y-4725000I-163195J0D01*
G01*
D10*
X6700000Y-3372500D02*
X8300000Y-3372500D01*
D11*
X9568195Y-4725000D02*
G75*
G03*
X9568195Y-4725000I-163195J0D01*
G01*
X9280468Y-6188500D02*
X9280468Y-9811500D01*
X7663195Y-11275000D02*
G75*
G03*
X7663195Y-11275000I-163195J0D01*
G01*
X5618856Y-6370922D02*
G75*
G03*
X5522125Y-6406384I-18866J-98198D01*
G01*
D10*
X6700000Y-3372500D02*
G75*
G03*
X6600000Y-3472500I0J-100000D01*
G01*
X6500000Y-3872500D02*
X5500000Y-3872500D01*
X6500000Y-3872500D02*
G75*
G03*
X6600000Y-3772500I0J100000D01*
G01*
D11*
X9280468Y-6188500D02*
G75*
G03*
X5762329Y-6147407I-1780468J-1811500D01*
G01*
X5522125Y-6406384D02*
G75*
G03*
X5949043Y-10011500I1977875J-1593616D01*
G01*
X5758195Y-4725000D02*
G75*
G03*
X5758195Y-4725000I-163195J0D01*
G01*
X9568195Y-11275000D02*
G75*
G03*
X9568195Y-11275000I-163195J0D01*
G01*
X9050957Y-10011500D02*
G75*
G03*
X9280468Y-9811500I-1550977J2011520D01*
G01*
X4000000Y-5372500D02*
X4000000Y-10627500D01*
D10*
X8400000Y-3472500D02*
G75*
G03*
X8300000Y-3372500I-99990J10D01*
G01*
D11*
X9050957Y-10011500D02*
X5949043Y-10011500D01*
X11000000Y-5372500D02*
G75*
G03*
X9500000Y-3872500I-1499994J6D01*
G01*
X5500000Y-12127500D02*
X9500000Y-12127500D01*
X9500000Y-12127500D02*
G75*
G03*
X11000000Y-10627500I-2J1500002D01*
G01*
D10*
X6600000Y-3772500D02*
X6600000Y-3472500D01*
D11*
X4000000Y-10627500D02*
G75*
G03*
X5500000Y-12127500I1500006J6D01*
G01*
D12*
D10*
X7225000Y-3572500D02*
X7325000Y-3672500D01*
X7325000Y-3572500D02*
X7225000Y-3672500D01*
X7675000Y-3572500D02*
X7775000Y-3672500D01*
X7775000Y-3572500D02*
X7675000Y-3672500D01*
D12*
X4260277Y-12439484D02*
X4260277Y-12239484D01*
X4260277Y-12239484D02*
X4307896Y-12239484D01*
X4307896Y-12239484D02*
X4336467Y-12249007D01*
X4336467Y-12249007D02*
X4355515Y-12268055D01*
X4355515Y-12268055D02*
X4365039Y-12287103D01*
X4365039Y-12287103D02*
X4374563Y-12325198D01*
X4374563Y-12325198D02*
X4374563Y-12353769D01*
X4374563Y-12353769D02*
X4365039Y-12391865D01*
X4365039Y-12391865D02*
X4355515Y-12410912D01*
X4355515Y-12410912D02*
X4336467Y-12429960D01*
X4336467Y-12429960D02*
X4307896Y-12439484D01*
X4307896Y-12439484D02*
X4260277Y-12439484D01*
X4460277Y-12439484D02*
X4460277Y-12306150D01*
X4460277Y-12344246D02*
X4469801Y-12325198D01*
X4469801Y-12325198D02*
X4479324Y-12315674D01*
X4479324Y-12315674D02*
X4498372Y-12306150D01*
X4498372Y-12306150D02*
X4517420Y-12306150D01*
X4584086Y-12439484D02*
X4584086Y-12306150D01*
X4584086Y-12239484D02*
X4574563Y-12249007D01*
X4574563Y-12249007D02*
X4584086Y-12258531D01*
X4584086Y-12258531D02*
X4593610Y-12249007D01*
X4593610Y-12249007D02*
X4584086Y-12239484D01*
X4584086Y-12239484D02*
X4584086Y-12258531D01*
X4707896Y-12439484D02*
X4688848Y-12429960D01*
X4688848Y-12429960D02*
X4679324Y-12410912D01*
X4679324Y-12410912D02*
X4679324Y-12239484D01*
X4812658Y-12439484D02*
X4793610Y-12429960D01*
X4793610Y-12429960D02*
X4784086Y-12410912D01*
X4784086Y-12410912D02*
X4784086Y-12239484D01*
X5041229Y-12439484D02*
X5041229Y-12239484D01*
X5041229Y-12239484D02*
X5107896Y-12382341D01*
X5107896Y-12382341D02*
X5174563Y-12239484D01*
X5174563Y-12239484D02*
X5174563Y-12439484D01*
X5355515Y-12439484D02*
X5355515Y-12334722D01*
X5355515Y-12334722D02*
X5345991Y-12315674D01*
X5345991Y-12315674D02*
X5326944Y-12306150D01*
X5326944Y-12306150D02*
X5288848Y-12306150D01*
X5288848Y-12306150D02*
X5269801Y-12315674D01*
X5355515Y-12429960D02*
X5336467Y-12439484D01*
X5336467Y-12439484D02*
X5288848Y-12439484D01*
X5288848Y-12439484D02*
X5269801Y-12429960D01*
X5269801Y-12429960D02*
X5260277Y-12410912D01*
X5260277Y-12410912D02*
X5260277Y-12391865D01*
X5260277Y-12391865D02*
X5269801Y-12372817D01*
X5269801Y-12372817D02*
X5288848Y-12363293D01*
X5288848Y-12363293D02*
X5336467Y-12363293D01*
X5336467Y-12363293D02*
X5355515Y-12353769D01*
X5450753Y-12306150D02*
X5450753Y-12506150D01*
X5450753Y-12315674D02*
X5469801Y-12306150D01*
X5469801Y-12306150D02*
X5507896Y-12306150D01*
X5507896Y-12306150D02*
X5526944Y-12315674D01*
X5526944Y-12315674D02*
X5536467Y-12325198D01*
X5536467Y-12325198D02*
X5545991Y-12344246D01*
X5545991Y-12344246D02*
X5545991Y-12401388D01*
X5545991Y-12401388D02*
X5536467Y-12420436D01*
X5536467Y-12420436D02*
X5526944Y-12429960D01*
X5526944Y-12429960D02*
X5507896Y-12439484D01*
X5507896Y-12439484D02*
X5469801Y-12439484D01*
X5469801Y-12439484D02*
X5450753Y-12429960D01*
X5631705Y-12420436D02*
X5641229Y-12429960D01*
X5641229Y-12429960D02*
X5631705Y-12439484D01*
X5631705Y-12439484D02*
X5622182Y-12429960D01*
X5622182Y-12429960D02*
X5631705Y-12420436D01*
X5631705Y-12420436D02*
X5631705Y-12439484D01*
X5631705Y-12315674D02*
X5641229Y-12325198D01*
X5641229Y-12325198D02*
X5631705Y-12334722D01*
X5631705Y-12334722D02*
X5622182Y-12325198D01*
X5622182Y-12325198D02*
X5631705Y-12315674D01*
X5631705Y-12315674D02*
X5631705Y-12334722D01*
D10*
X3899500Y-12718000D02*
X3999500Y-12818000D01*
X3999500Y-12718000D02*
X3899500Y-12818000D01*
D12*
X4365039Y-12859484D02*
X4250753Y-12859484D01*
X4307896Y-12859484D02*
X4307896Y-12659484D01*
X4307896Y-12659484D02*
X4288848Y-12688055D01*
X4288848Y-12688055D02*
X4269801Y-12707103D01*
X4269801Y-12707103D02*
X4250753Y-12716626D01*
X4450753Y-12840436D02*
X4460277Y-12849960D01*
X4460277Y-12849960D02*
X4450753Y-12859484D01*
X4450753Y-12859484D02*
X4441229Y-12849960D01*
X4441229Y-12849960D02*
X4450753Y-12840436D01*
X4450753Y-12840436D02*
X4450753Y-12859484D01*
X4584086Y-12659484D02*
X4603134Y-12659484D01*
X4603134Y-12659484D02*
X4622182Y-12669007D01*
X4622182Y-12669007D02*
X4631705Y-12678531D01*
X4631705Y-12678531D02*
X4641229Y-12697579D01*
X4641229Y-12697579D02*
X4650753Y-12735674D01*
X4650753Y-12735674D02*
X4650753Y-12783293D01*
X4650753Y-12783293D02*
X4641229Y-12821388D01*
X4641229Y-12821388D02*
X4631705Y-12840436D01*
X4631705Y-12840436D02*
X4622182Y-12849960D01*
X4622182Y-12849960D02*
X4603134Y-12859484D01*
X4603134Y-12859484D02*
X4584086Y-12859484D01*
X4584086Y-12859484D02*
X4565039Y-12849960D01*
X4565039Y-12849960D02*
X4555515Y-12840436D01*
X4555515Y-12840436D02*
X4545991Y-12821388D01*
X4545991Y-12821388D02*
X4536467Y-12783293D01*
X4536467Y-12783293D02*
X4536467Y-12735674D01*
X4536467Y-12735674D02*
X4545991Y-12697579D01*
X4545991Y-12697579D02*
X4555515Y-12678531D01*
X4555515Y-12678531D02*
X4565039Y-12669007D01*
X4565039Y-12669007D02*
X4584086Y-12659484D01*
X4774563Y-12659484D02*
X4793610Y-12659484D01*
X4793610Y-12659484D02*
X4812658Y-12669007D01*
X4812658Y-12669007D02*
X4822182Y-12678531D01*
X4822182Y-12678531D02*
X4831705Y-12697579D01*
X4831705Y-12697579D02*
X4841229Y-12735674D01*
X4841229Y-12735674D02*
X4841229Y-12783293D01*
X4841229Y-12783293D02*
X4831705Y-12821388D01*
X4831705Y-12821388D02*
X4822182Y-12840436D01*
X4822182Y-12840436D02*
X4812658Y-12849960D01*
X4812658Y-12849960D02*
X4793610Y-12859484D01*
X4793610Y-12859484D02*
X4774563Y-12859484D01*
X4774563Y-12859484D02*
X4755515Y-12849960D01*
X4755515Y-12849960D02*
X4745991Y-12840436D01*
X4745991Y-12840436D02*
X4736467Y-12821388D01*
X4736467Y-12821388D02*
X4726944Y-12783293D01*
X4726944Y-12783293D02*
X4726944Y-12735674D01*
X4726944Y-12735674D02*
X4736467Y-12697579D01*
X4736467Y-12697579D02*
X4745991Y-12678531D01*
X4745991Y-12678531D02*
X4755515Y-12669007D01*
X4755515Y-12669007D02*
X4774563Y-12659484D01*
X4965039Y-12659484D02*
X4984086Y-12659484D01*
X4984086Y-12659484D02*
X5003134Y-12669007D01*
X5003134Y-12669007D02*
X5012658Y-12678531D01*
X5012658Y-12678531D02*
X5022182Y-12697579D01*
X5022182Y-12697579D02*
X5031705Y-12735674D01*
X5031705Y-12735674D02*
X5031705Y-12783293D01*
X5031705Y-12783293D02*
X5022182Y-12821388D01*
X5022182Y-12821388D02*
X5012658Y-12840436D01*
X5012658Y-12840436D02*
X5003134Y-12849960D01*
X5003134Y-12849960D02*
X4984086Y-12859484D01*
X4984086Y-12859484D02*
X4965039Y-12859484D01*
X4965039Y-12859484D02*
X4945991Y-12849960D01*
X4945991Y-12849960D02*
X4936467Y-12840436D01*
X4936467Y-12840436D02*
X4926944Y-12821388D01*
X4926944Y-12821388D02*
X4917420Y-12783293D01*
X4917420Y-12783293D02*
X4917420Y-12735674D01*
X4917420Y-12735674D02*
X4926944Y-12697579D01*
X4926944Y-12697579D02*
X4936467Y-12678531D01*
X4936467Y-12678531D02*
X4945991Y-12669007D01*
X4945991Y-12669007D02*
X4965039Y-12659484D01*
X5117420Y-12859484D02*
X5117420Y-12726150D01*
X5117420Y-12745198D02*
X5126944Y-12735674D01*
X5126944Y-12735674D02*
X5145991Y-12726150D01*
X5145991Y-12726150D02*
X5174563Y-12726150D01*
X5174563Y-12726150D02*
X5193610Y-12735674D01*
X5193610Y-12735674D02*
X5203134Y-12754722D01*
X5203134Y-12754722D02*
X5203134Y-12859484D01*
X5203134Y-12754722D02*
X5212658Y-12735674D01*
X5212658Y-12735674D02*
X5231705Y-12726150D01*
X5231705Y-12726150D02*
X5260277Y-12726150D01*
X5260277Y-12726150D02*
X5279325Y-12735674D01*
X5279325Y-12735674D02*
X5288848Y-12754722D01*
X5288848Y-12754722D02*
X5288848Y-12859484D01*
X5384086Y-12859484D02*
X5384086Y-12726150D01*
X5384086Y-12745198D02*
X5393610Y-12735674D01*
X5393610Y-12735674D02*
X5412658Y-12726150D01*
X5412658Y-12726150D02*
X5441229Y-12726150D01*
X5441229Y-12726150D02*
X5460277Y-12735674D01*
X5460277Y-12735674D02*
X5469801Y-12754722D01*
X5469801Y-12754722D02*
X5469801Y-12859484D01*
X5469801Y-12754722D02*
X5479325Y-12735674D01*
X5479325Y-12735674D02*
X5498372Y-12726150D01*
X5498372Y-12726150D02*
X5526944Y-12726150D01*
X5526944Y-12726150D02*
X5545991Y-12735674D01*
X5545991Y-12735674D02*
X5555515Y-12754722D01*
X5555515Y-12754722D02*
X5555515Y-12859484D01*
X5945991Y-12649960D02*
X5774563Y-12907103D01*
X6203134Y-12659484D02*
X6222182Y-12659484D01*
X6222182Y-12659484D02*
X6241229Y-12669007D01*
X6241229Y-12669007D02*
X6250753Y-12678531D01*
X6250753Y-12678531D02*
X6260277Y-12697579D01*
X6260277Y-12697579D02*
X6269801Y-12735674D01*
X6269801Y-12735674D02*
X6269801Y-12783293D01*
X6269801Y-12783293D02*
X6260277Y-12821388D01*
X6260277Y-12821388D02*
X6250753Y-12840436D01*
X6250753Y-12840436D02*
X6241229Y-12849960D01*
X6241229Y-12849960D02*
X6222182Y-12859484D01*
X6222182Y-12859484D02*
X6203134Y-12859484D01*
X6203134Y-12859484D02*
X6184086Y-12849960D01*
X6184086Y-12849960D02*
X6174563Y-12840436D01*
X6174563Y-12840436D02*
X6165039Y-12821388D01*
X6165039Y-12821388D02*
X6155515Y-12783293D01*
X6155515Y-12783293D02*
X6155515Y-12735674D01*
X6155515Y-12735674D02*
X6165039Y-12697579D01*
X6165039Y-12697579D02*
X6174563Y-12678531D01*
X6174563Y-12678531D02*
X6184086Y-12669007D01*
X6184086Y-12669007D02*
X6203134Y-12659484D01*
X6355515Y-12840436D02*
X6365039Y-12849960D01*
X6365039Y-12849960D02*
X6355515Y-12859484D01*
X6355515Y-12859484D02*
X6345991Y-12849960D01*
X6345991Y-12849960D02*
X6355515Y-12840436D01*
X6355515Y-12840436D02*
X6355515Y-12859484D01*
X6488848Y-12659484D02*
X6507896Y-12659484D01*
X6507896Y-12659484D02*
X6526944Y-12669007D01*
X6526944Y-12669007D02*
X6536467Y-12678531D01*
X6536467Y-12678531D02*
X6545991Y-12697579D01*
X6545991Y-12697579D02*
X6555515Y-12735674D01*
X6555515Y-12735674D02*
X6555515Y-12783293D01*
X6555515Y-12783293D02*
X6545991Y-12821388D01*
X6545991Y-12821388D02*
X6536467Y-12840436D01*
X6536467Y-12840436D02*
X6526944Y-12849960D01*
X6526944Y-12849960D02*
X6507896Y-12859484D01*
X6507896Y-12859484D02*
X6488848Y-12859484D01*
X6488848Y-12859484D02*
X6469801Y-12849960D01*
X6469801Y-12849960D02*
X6460277Y-12840436D01*
X6460277Y-12840436D02*
X6450753Y-12821388D01*
X6450753Y-12821388D02*
X6441229Y-12783293D01*
X6441229Y-12783293D02*
X6441229Y-12735674D01*
X6441229Y-12735674D02*
X6450753Y-12697579D01*
X6450753Y-12697579D02*
X6460277Y-12678531D01*
X6460277Y-12678531D02*
X6469801Y-12669007D01*
X6469801Y-12669007D02*
X6488848Y-12659484D01*
X6622182Y-12659484D02*
X6745991Y-12659484D01*
X6745991Y-12659484D02*
X6679325Y-12735674D01*
X6679325Y-12735674D02*
X6707896Y-12735674D01*
X6707896Y-12735674D02*
X6726944Y-12745198D01*
X6726944Y-12745198D02*
X6736467Y-12754722D01*
X6736467Y-12754722D02*
X6745991Y-12773769D01*
X6745991Y-12773769D02*
X6745991Y-12821388D01*
X6745991Y-12821388D02*
X6736467Y-12840436D01*
X6736467Y-12840436D02*
X6726944Y-12849960D01*
X6726944Y-12849960D02*
X6707896Y-12859484D01*
X6707896Y-12859484D02*
X6650753Y-12859484D01*
X6650753Y-12859484D02*
X6631706Y-12849960D01*
X6631706Y-12849960D02*
X6622182Y-12840436D01*
X6841229Y-12859484D02*
X6879325Y-12859484D01*
X6879325Y-12859484D02*
X6898372Y-12849960D01*
X6898372Y-12849960D02*
X6907896Y-12840436D01*
X6907896Y-12840436D02*
X6926944Y-12811865D01*
X6926944Y-12811865D02*
X6936467Y-12773769D01*
X6936467Y-12773769D02*
X6936467Y-12697579D01*
X6936467Y-12697579D02*
X6926944Y-12678531D01*
X6926944Y-12678531D02*
X6917420Y-12669007D01*
X6917420Y-12669007D02*
X6898372Y-12659484D01*
X6898372Y-12659484D02*
X6860277Y-12659484D01*
X6860277Y-12659484D02*
X6841229Y-12669007D01*
X6841229Y-12669007D02*
X6831706Y-12678531D01*
X6831706Y-12678531D02*
X6822182Y-12697579D01*
X6822182Y-12697579D02*
X6822182Y-12745198D01*
X6822182Y-12745198D02*
X6831706Y-12764246D01*
X6831706Y-12764246D02*
X6841229Y-12773769D01*
X6841229Y-12773769D02*
X6860277Y-12783293D01*
X6860277Y-12783293D02*
X6898372Y-12783293D01*
X6898372Y-12783293D02*
X6917420Y-12773769D01*
X6917420Y-12773769D02*
X6926944Y-12764246D01*
X6926944Y-12764246D02*
X6936467Y-12745198D01*
X7107896Y-12726150D02*
X7107896Y-12859484D01*
X7060277Y-12649960D02*
X7012658Y-12792817D01*
X7012658Y-12792817D02*
X7136467Y-12792817D01*
X7203134Y-12659484D02*
X7203134Y-12697579D01*
X7279325Y-12659484D02*
X7279325Y-12697579D01*
X7574563Y-12935674D02*
X7565039Y-12926150D01*
X7565039Y-12926150D02*
X7545991Y-12897579D01*
X7545991Y-12897579D02*
X7536468Y-12878531D01*
X7536468Y-12878531D02*
X7526944Y-12849960D01*
X7526944Y-12849960D02*
X7517420Y-12802341D01*
X7517420Y-12802341D02*
X7517420Y-12764246D01*
X7517420Y-12764246D02*
X7526944Y-12716626D01*
X7526944Y-12716626D02*
X7536468Y-12688055D01*
X7536468Y-12688055D02*
X7545991Y-12669007D01*
X7545991Y-12669007D02*
X7565039Y-12640436D01*
X7565039Y-12640436D02*
X7574563Y-12630912D01*
X7641229Y-12678531D02*
X7650753Y-12669007D01*
X7650753Y-12669007D02*
X7669801Y-12659484D01*
X7669801Y-12659484D02*
X7717420Y-12659484D01*
X7717420Y-12659484D02*
X7736468Y-12669007D01*
X7736468Y-12669007D02*
X7745991Y-12678531D01*
X7745991Y-12678531D02*
X7755515Y-12697579D01*
X7755515Y-12697579D02*
X7755515Y-12716626D01*
X7755515Y-12716626D02*
X7745991Y-12745198D01*
X7745991Y-12745198D02*
X7631706Y-12859484D01*
X7631706Y-12859484D02*
X7755515Y-12859484D01*
X7993610Y-12859484D02*
X7993610Y-12659484D01*
X8079325Y-12859484D02*
X8079325Y-12754722D01*
X8079325Y-12754722D02*
X8069801Y-12735674D01*
X8069801Y-12735674D02*
X8050753Y-12726150D01*
X8050753Y-12726150D02*
X8022182Y-12726150D01*
X8022182Y-12726150D02*
X8003134Y-12735674D01*
X8003134Y-12735674D02*
X7993610Y-12745198D01*
X8203134Y-12859484D02*
X8184087Y-12849960D01*
X8184087Y-12849960D02*
X8174563Y-12840436D01*
X8174563Y-12840436D02*
X8165039Y-12821388D01*
X8165039Y-12821388D02*
X8165039Y-12764246D01*
X8165039Y-12764246D02*
X8174563Y-12745198D01*
X8174563Y-12745198D02*
X8184087Y-12735674D01*
X8184087Y-12735674D02*
X8203134Y-12726150D01*
X8203134Y-12726150D02*
X8231706Y-12726150D01*
X8231706Y-12726150D02*
X8250753Y-12735674D01*
X8250753Y-12735674D02*
X8260277Y-12745198D01*
X8260277Y-12745198D02*
X8269801Y-12764246D01*
X8269801Y-12764246D02*
X8269801Y-12821388D01*
X8269801Y-12821388D02*
X8260277Y-12840436D01*
X8260277Y-12840436D02*
X8250753Y-12849960D01*
X8250753Y-12849960D02*
X8231706Y-12859484D01*
X8231706Y-12859484D02*
X8203134Y-12859484D01*
X8384087Y-12859484D02*
X8365039Y-12849960D01*
X8365039Y-12849960D02*
X8355515Y-12830912D01*
X8355515Y-12830912D02*
X8355515Y-12659484D01*
X8536468Y-12849960D02*
X8517420Y-12859484D01*
X8517420Y-12859484D02*
X8479325Y-12859484D01*
X8479325Y-12859484D02*
X8460277Y-12849960D01*
X8460277Y-12849960D02*
X8450753Y-12830912D01*
X8450753Y-12830912D02*
X8450753Y-12754722D01*
X8450753Y-12754722D02*
X8460277Y-12735674D01*
X8460277Y-12735674D02*
X8479325Y-12726150D01*
X8479325Y-12726150D02*
X8517420Y-12726150D01*
X8517420Y-12726150D02*
X8536468Y-12735674D01*
X8536468Y-12735674D02*
X8545992Y-12754722D01*
X8545992Y-12754722D02*
X8545992Y-12773769D01*
X8545992Y-12773769D02*
X8450753Y-12792817D01*
X8622182Y-12849960D02*
X8641230Y-12859484D01*
X8641230Y-12859484D02*
X8679325Y-12859484D01*
X8679325Y-12859484D02*
X8698373Y-12849960D01*
X8698373Y-12849960D02*
X8707896Y-12830912D01*
X8707896Y-12830912D02*
X8707896Y-12821388D01*
X8707896Y-12821388D02*
X8698373Y-12802341D01*
X8698373Y-12802341D02*
X8679325Y-12792817D01*
X8679325Y-12792817D02*
X8650753Y-12792817D01*
X8650753Y-12792817D02*
X8631706Y-12783293D01*
X8631706Y-12783293D02*
X8622182Y-12764246D01*
X8622182Y-12764246D02*
X8622182Y-12754722D01*
X8622182Y-12754722D02*
X8631706Y-12735674D01*
X8631706Y-12735674D02*
X8650753Y-12726150D01*
X8650753Y-12726150D02*
X8679325Y-12726150D01*
X8679325Y-12726150D02*
X8698373Y-12735674D01*
X8774563Y-12935674D02*
X8784087Y-12926150D01*
X8784087Y-12926150D02*
X8803134Y-12897579D01*
X8803134Y-12897579D02*
X8812658Y-12878531D01*
X8812658Y-12878531D02*
X8822182Y-12849960D01*
X8822182Y-12849960D02*
X8831706Y-12802341D01*
X8831706Y-12802341D02*
X8831706Y-12764246D01*
X8831706Y-12764246D02*
X8822182Y-12716626D01*
X8822182Y-12716626D02*
X8812658Y-12688055D01*
X8812658Y-12688055D02*
X8803134Y-12669007D01*
X8803134Y-12669007D02*
X8784087Y-12640436D01*
X8784087Y-12640436D02*
X8774563Y-12630912D01*
M02*
