%TF.GenerationSoftware,KiCad,Pcbnew,7.0.6*%
%TF.CreationDate,2024-02-05T15:04:15-06:00*%
%TF.ProjectId,TopProbeCard,546f7050-726f-4626-9543-6172642e6b69,rev?*%
%TF.SameCoordinates,Original*%
%TF.FileFunction,Legend,Top*%
%TF.FilePolarity,Positive*%
%FSLAX46Y46*%
G04 Gerber Fmt 4.6, Leading zero omitted, Abs format (unit mm)*
G04 Created by KiCad (PCBNEW 7.0.6) date 2024-02-05 15:04:15*
%MOMM*%
%LPD*%
G01*
G04 APERTURE LIST*
%ADD10C,0.150000*%
G04 APERTURE END LIST*
D10*
X102741652Y-101970025D02*
X101741652Y-101970025D01*
X101741652Y-101970025D02*
X101741652Y-101731930D01*
X101741652Y-101731930D02*
X101789271Y-101589073D01*
X101789271Y-101589073D02*
X101884509Y-101493835D01*
X101884509Y-101493835D02*
X101979747Y-101446216D01*
X101979747Y-101446216D02*
X102170223Y-101398597D01*
X102170223Y-101398597D02*
X102313080Y-101398597D01*
X102313080Y-101398597D02*
X102503556Y-101446216D01*
X102503556Y-101446216D02*
X102598794Y-101493835D01*
X102598794Y-101493835D02*
X102694033Y-101589073D01*
X102694033Y-101589073D02*
X102741652Y-101731930D01*
X102741652Y-101731930D02*
X102741652Y-101970025D01*
X102694033Y-100589073D02*
X102741652Y-100684311D01*
X102741652Y-100684311D02*
X102741652Y-100874787D01*
X102741652Y-100874787D02*
X102694033Y-100970025D01*
X102694033Y-100970025D02*
X102598794Y-101017644D01*
X102598794Y-101017644D02*
X102217842Y-101017644D01*
X102217842Y-101017644D02*
X102122604Y-100970025D01*
X102122604Y-100970025D02*
X102074985Y-100874787D01*
X102074985Y-100874787D02*
X102074985Y-100684311D01*
X102074985Y-100684311D02*
X102122604Y-100589073D01*
X102122604Y-100589073D02*
X102217842Y-100541454D01*
X102217842Y-100541454D02*
X102313080Y-100541454D01*
X102313080Y-100541454D02*
X102408318Y-101017644D01*
X102074985Y-100112882D02*
X103074985Y-100112882D01*
X102122604Y-100112882D02*
X102074985Y-100017644D01*
X102074985Y-100017644D02*
X102074985Y-99827168D01*
X102074985Y-99827168D02*
X102122604Y-99731930D01*
X102122604Y-99731930D02*
X102170223Y-99684311D01*
X102170223Y-99684311D02*
X102265461Y-99636692D01*
X102265461Y-99636692D02*
X102551175Y-99636692D01*
X102551175Y-99636692D02*
X102646413Y-99684311D01*
X102646413Y-99684311D02*
X102694033Y-99731930D01*
X102694033Y-99731930D02*
X102741652Y-99827168D01*
X102741652Y-99827168D02*
X102741652Y-100017644D01*
X102741652Y-100017644D02*
X102694033Y-100112882D01*
X102741652Y-98779549D02*
X102217842Y-98779549D01*
X102217842Y-98779549D02*
X102122604Y-98827168D01*
X102122604Y-98827168D02*
X102074985Y-98922406D01*
X102074985Y-98922406D02*
X102074985Y-99112882D01*
X102074985Y-99112882D02*
X102122604Y-99208120D01*
X102694033Y-98779549D02*
X102741652Y-98874787D01*
X102741652Y-98874787D02*
X102741652Y-99112882D01*
X102741652Y-99112882D02*
X102694033Y-99208120D01*
X102694033Y-99208120D02*
X102598794Y-99255739D01*
X102598794Y-99255739D02*
X102503556Y-99255739D01*
X102503556Y-99255739D02*
X102408318Y-99208120D01*
X102408318Y-99208120D02*
X102360699Y-99112882D01*
X102360699Y-99112882D02*
X102360699Y-98874787D01*
X102360699Y-98874787D02*
X102313080Y-98779549D01*
X102741652Y-98303358D02*
X102074985Y-98303358D01*
X102265461Y-98303358D02*
X102170223Y-98255739D01*
X102170223Y-98255739D02*
X102122604Y-98208120D01*
X102122604Y-98208120D02*
X102074985Y-98112882D01*
X102074985Y-98112882D02*
X102074985Y-98017644D01*
X102074985Y-97827167D02*
X102074985Y-97446215D01*
X101741652Y-97684310D02*
X102598794Y-97684310D01*
X102598794Y-97684310D02*
X102694033Y-97636691D01*
X102694033Y-97636691D02*
X102741652Y-97541453D01*
X102741652Y-97541453D02*
X102741652Y-97446215D01*
X102741652Y-97112881D02*
X102074985Y-97112881D01*
X102170223Y-97112881D02*
X102122604Y-97065262D01*
X102122604Y-97065262D02*
X102074985Y-96970024D01*
X102074985Y-96970024D02*
X102074985Y-96827167D01*
X102074985Y-96827167D02*
X102122604Y-96731929D01*
X102122604Y-96731929D02*
X102217842Y-96684310D01*
X102217842Y-96684310D02*
X102741652Y-96684310D01*
X102217842Y-96684310D02*
X102122604Y-96636691D01*
X102122604Y-96636691D02*
X102074985Y-96541453D01*
X102074985Y-96541453D02*
X102074985Y-96398596D01*
X102074985Y-96398596D02*
X102122604Y-96303357D01*
X102122604Y-96303357D02*
X102217842Y-96255738D01*
X102217842Y-96255738D02*
X102741652Y-96255738D01*
X102694033Y-95398596D02*
X102741652Y-95493834D01*
X102741652Y-95493834D02*
X102741652Y-95684310D01*
X102741652Y-95684310D02*
X102694033Y-95779548D01*
X102694033Y-95779548D02*
X102598794Y-95827167D01*
X102598794Y-95827167D02*
X102217842Y-95827167D01*
X102217842Y-95827167D02*
X102122604Y-95779548D01*
X102122604Y-95779548D02*
X102074985Y-95684310D01*
X102074985Y-95684310D02*
X102074985Y-95493834D01*
X102074985Y-95493834D02*
X102122604Y-95398596D01*
X102122604Y-95398596D02*
X102217842Y-95350977D01*
X102217842Y-95350977D02*
X102313080Y-95350977D01*
X102313080Y-95350977D02*
X102408318Y-95827167D01*
X102074985Y-94922405D02*
X102741652Y-94922405D01*
X102170223Y-94922405D02*
X102122604Y-94874786D01*
X102122604Y-94874786D02*
X102074985Y-94779548D01*
X102074985Y-94779548D02*
X102074985Y-94636691D01*
X102074985Y-94636691D02*
X102122604Y-94541453D01*
X102122604Y-94541453D02*
X102217842Y-94493834D01*
X102217842Y-94493834D02*
X102741652Y-94493834D01*
X102074985Y-94160500D02*
X102074985Y-93779548D01*
X101741652Y-94017643D02*
X102598794Y-94017643D01*
X102598794Y-94017643D02*
X102694033Y-93970024D01*
X102694033Y-93970024D02*
X102741652Y-93874786D01*
X102741652Y-93874786D02*
X102741652Y-93779548D01*
X102741652Y-92541452D02*
X102694033Y-92636690D01*
X102694033Y-92636690D02*
X102646413Y-92684309D01*
X102646413Y-92684309D02*
X102551175Y-92731928D01*
X102551175Y-92731928D02*
X102265461Y-92731928D01*
X102265461Y-92731928D02*
X102170223Y-92684309D01*
X102170223Y-92684309D02*
X102122604Y-92636690D01*
X102122604Y-92636690D02*
X102074985Y-92541452D01*
X102074985Y-92541452D02*
X102074985Y-92398595D01*
X102074985Y-92398595D02*
X102122604Y-92303357D01*
X102122604Y-92303357D02*
X102170223Y-92255738D01*
X102170223Y-92255738D02*
X102265461Y-92208119D01*
X102265461Y-92208119D02*
X102551175Y-92208119D01*
X102551175Y-92208119D02*
X102646413Y-92255738D01*
X102646413Y-92255738D02*
X102694033Y-92303357D01*
X102694033Y-92303357D02*
X102741652Y-92398595D01*
X102741652Y-92398595D02*
X102741652Y-92541452D01*
X102074985Y-91922404D02*
X102074985Y-91541452D01*
X102741652Y-91779547D02*
X101884509Y-91779547D01*
X101884509Y-91779547D02*
X101789271Y-91731928D01*
X101789271Y-91731928D02*
X101741652Y-91636690D01*
X101741652Y-91636690D02*
X101741652Y-91541452D01*
X102741652Y-90446213D02*
X101741652Y-90446213D01*
X101741652Y-90446213D02*
X101741652Y-90065261D01*
X101741652Y-90065261D02*
X101789271Y-89970023D01*
X101789271Y-89970023D02*
X101836890Y-89922404D01*
X101836890Y-89922404D02*
X101932128Y-89874785D01*
X101932128Y-89874785D02*
X102074985Y-89874785D01*
X102074985Y-89874785D02*
X102170223Y-89922404D01*
X102170223Y-89922404D02*
X102217842Y-89970023D01*
X102217842Y-89970023D02*
X102265461Y-90065261D01*
X102265461Y-90065261D02*
X102265461Y-90446213D01*
X102741652Y-89446213D02*
X101741652Y-89446213D01*
X102741652Y-89017642D02*
X102217842Y-89017642D01*
X102217842Y-89017642D02*
X102122604Y-89065261D01*
X102122604Y-89065261D02*
X102074985Y-89160499D01*
X102074985Y-89160499D02*
X102074985Y-89303356D01*
X102074985Y-89303356D02*
X102122604Y-89398594D01*
X102122604Y-89398594D02*
X102170223Y-89446213D01*
X102074985Y-88636689D02*
X102741652Y-88398594D01*
X102074985Y-88160499D02*
X102741652Y-88398594D01*
X102741652Y-88398594D02*
X102979747Y-88493832D01*
X102979747Y-88493832D02*
X103027366Y-88541451D01*
X103027366Y-88541451D02*
X103074985Y-88636689D01*
X102694033Y-87827165D02*
X102741652Y-87731927D01*
X102741652Y-87731927D02*
X102741652Y-87541451D01*
X102741652Y-87541451D02*
X102694033Y-87446213D01*
X102694033Y-87446213D02*
X102598794Y-87398594D01*
X102598794Y-87398594D02*
X102551175Y-87398594D01*
X102551175Y-87398594D02*
X102455937Y-87446213D01*
X102455937Y-87446213D02*
X102408318Y-87541451D01*
X102408318Y-87541451D02*
X102408318Y-87684308D01*
X102408318Y-87684308D02*
X102360699Y-87779546D01*
X102360699Y-87779546D02*
X102265461Y-87827165D01*
X102265461Y-87827165D02*
X102217842Y-87827165D01*
X102217842Y-87827165D02*
X102122604Y-87779546D01*
X102122604Y-87779546D02*
X102074985Y-87684308D01*
X102074985Y-87684308D02*
X102074985Y-87541451D01*
X102074985Y-87541451D02*
X102122604Y-87446213D01*
X102741652Y-86970022D02*
X102074985Y-86970022D01*
X101741652Y-86970022D02*
X101789271Y-87017641D01*
X101789271Y-87017641D02*
X101836890Y-86970022D01*
X101836890Y-86970022D02*
X101789271Y-86922403D01*
X101789271Y-86922403D02*
X101741652Y-86970022D01*
X101741652Y-86970022D02*
X101836890Y-86970022D01*
X102694033Y-86065261D02*
X102741652Y-86160499D01*
X102741652Y-86160499D02*
X102741652Y-86350975D01*
X102741652Y-86350975D02*
X102694033Y-86446213D01*
X102694033Y-86446213D02*
X102646413Y-86493832D01*
X102646413Y-86493832D02*
X102551175Y-86541451D01*
X102551175Y-86541451D02*
X102265461Y-86541451D01*
X102265461Y-86541451D02*
X102170223Y-86493832D01*
X102170223Y-86493832D02*
X102122604Y-86446213D01*
X102122604Y-86446213D02*
X102074985Y-86350975D01*
X102074985Y-86350975D02*
X102074985Y-86160499D01*
X102074985Y-86160499D02*
X102122604Y-86065261D01*
X102694033Y-85684308D02*
X102741652Y-85589070D01*
X102741652Y-85589070D02*
X102741652Y-85398594D01*
X102741652Y-85398594D02*
X102694033Y-85303356D01*
X102694033Y-85303356D02*
X102598794Y-85255737D01*
X102598794Y-85255737D02*
X102551175Y-85255737D01*
X102551175Y-85255737D02*
X102455937Y-85303356D01*
X102455937Y-85303356D02*
X102408318Y-85398594D01*
X102408318Y-85398594D02*
X102408318Y-85541451D01*
X102408318Y-85541451D02*
X102360699Y-85636689D01*
X102360699Y-85636689D02*
X102265461Y-85684308D01*
X102265461Y-85684308D02*
X102217842Y-85684308D01*
X102217842Y-85684308D02*
X102122604Y-85636689D01*
X102122604Y-85636689D02*
X102074985Y-85541451D01*
X102074985Y-85541451D02*
X102074985Y-85398594D01*
X102074985Y-85398594D02*
X102122604Y-85303356D01*
X103827842Y-101636692D02*
X103827842Y-101970025D01*
X104351652Y-101970025D02*
X103351652Y-101970025D01*
X103351652Y-101970025D02*
X103351652Y-101493835D01*
X104304033Y-100731930D02*
X104351652Y-100827168D01*
X104351652Y-100827168D02*
X104351652Y-101017644D01*
X104351652Y-101017644D02*
X104304033Y-101112882D01*
X104304033Y-101112882D02*
X104208794Y-101160501D01*
X104208794Y-101160501D02*
X103827842Y-101160501D01*
X103827842Y-101160501D02*
X103732604Y-101112882D01*
X103732604Y-101112882D02*
X103684985Y-101017644D01*
X103684985Y-101017644D02*
X103684985Y-100827168D01*
X103684985Y-100827168D02*
X103732604Y-100731930D01*
X103732604Y-100731930D02*
X103827842Y-100684311D01*
X103827842Y-100684311D02*
X103923080Y-100684311D01*
X103923080Y-100684311D02*
X104018318Y-101160501D01*
X104351652Y-100255739D02*
X103351652Y-100255739D01*
X103732604Y-100255739D02*
X103684985Y-100160501D01*
X103684985Y-100160501D02*
X103684985Y-99970025D01*
X103684985Y-99970025D02*
X103732604Y-99874787D01*
X103732604Y-99874787D02*
X103780223Y-99827168D01*
X103780223Y-99827168D02*
X103875461Y-99779549D01*
X103875461Y-99779549D02*
X104161175Y-99779549D01*
X104161175Y-99779549D02*
X104256413Y-99827168D01*
X104256413Y-99827168D02*
X104304033Y-99874787D01*
X104304033Y-99874787D02*
X104351652Y-99970025D01*
X104351652Y-99970025D02*
X104351652Y-100160501D01*
X104351652Y-100160501D02*
X104304033Y-100255739D01*
X104351652Y-99350977D02*
X103684985Y-99350977D01*
X103875461Y-99350977D02*
X103780223Y-99303358D01*
X103780223Y-99303358D02*
X103732604Y-99255739D01*
X103732604Y-99255739D02*
X103684985Y-99160501D01*
X103684985Y-99160501D02*
X103684985Y-99065263D01*
X103684985Y-98303358D02*
X104351652Y-98303358D01*
X103684985Y-98731929D02*
X104208794Y-98731929D01*
X104208794Y-98731929D02*
X104304033Y-98684310D01*
X104304033Y-98684310D02*
X104351652Y-98589072D01*
X104351652Y-98589072D02*
X104351652Y-98446215D01*
X104351652Y-98446215D02*
X104304033Y-98350977D01*
X104304033Y-98350977D02*
X104256413Y-98303358D01*
X104351652Y-97398596D02*
X103827842Y-97398596D01*
X103827842Y-97398596D02*
X103732604Y-97446215D01*
X103732604Y-97446215D02*
X103684985Y-97541453D01*
X103684985Y-97541453D02*
X103684985Y-97731929D01*
X103684985Y-97731929D02*
X103732604Y-97827167D01*
X104304033Y-97398596D02*
X104351652Y-97493834D01*
X104351652Y-97493834D02*
X104351652Y-97731929D01*
X104351652Y-97731929D02*
X104304033Y-97827167D01*
X104304033Y-97827167D02*
X104208794Y-97874786D01*
X104208794Y-97874786D02*
X104113556Y-97874786D01*
X104113556Y-97874786D02*
X104018318Y-97827167D01*
X104018318Y-97827167D02*
X103970699Y-97731929D01*
X103970699Y-97731929D02*
X103970699Y-97493834D01*
X103970699Y-97493834D02*
X103923080Y-97398596D01*
X104351652Y-96922405D02*
X103684985Y-96922405D01*
X103875461Y-96922405D02*
X103780223Y-96874786D01*
X103780223Y-96874786D02*
X103732604Y-96827167D01*
X103732604Y-96827167D02*
X103684985Y-96731929D01*
X103684985Y-96731929D02*
X103684985Y-96636691D01*
X103684985Y-96398595D02*
X104351652Y-96160500D01*
X103684985Y-95922405D02*
X104351652Y-96160500D01*
X104351652Y-96160500D02*
X104589747Y-96255738D01*
X104589747Y-96255738D02*
X104637366Y-96303357D01*
X104637366Y-96303357D02*
X104684985Y-96398595D01*
X103446890Y-94827166D02*
X103399271Y-94779547D01*
X103399271Y-94779547D02*
X103351652Y-94684309D01*
X103351652Y-94684309D02*
X103351652Y-94446214D01*
X103351652Y-94446214D02*
X103399271Y-94350976D01*
X103399271Y-94350976D02*
X103446890Y-94303357D01*
X103446890Y-94303357D02*
X103542128Y-94255738D01*
X103542128Y-94255738D02*
X103637366Y-94255738D01*
X103637366Y-94255738D02*
X103780223Y-94303357D01*
X103780223Y-94303357D02*
X104351652Y-94874785D01*
X104351652Y-94874785D02*
X104351652Y-94255738D01*
X103351652Y-93636690D02*
X103351652Y-93541452D01*
X103351652Y-93541452D02*
X103399271Y-93446214D01*
X103399271Y-93446214D02*
X103446890Y-93398595D01*
X103446890Y-93398595D02*
X103542128Y-93350976D01*
X103542128Y-93350976D02*
X103732604Y-93303357D01*
X103732604Y-93303357D02*
X103970699Y-93303357D01*
X103970699Y-93303357D02*
X104161175Y-93350976D01*
X104161175Y-93350976D02*
X104256413Y-93398595D01*
X104256413Y-93398595D02*
X104304033Y-93446214D01*
X104304033Y-93446214D02*
X104351652Y-93541452D01*
X104351652Y-93541452D02*
X104351652Y-93636690D01*
X104351652Y-93636690D02*
X104304033Y-93731928D01*
X104304033Y-93731928D02*
X104256413Y-93779547D01*
X104256413Y-93779547D02*
X104161175Y-93827166D01*
X104161175Y-93827166D02*
X103970699Y-93874785D01*
X103970699Y-93874785D02*
X103732604Y-93874785D01*
X103732604Y-93874785D02*
X103542128Y-93827166D01*
X103542128Y-93827166D02*
X103446890Y-93779547D01*
X103446890Y-93779547D02*
X103399271Y-93731928D01*
X103399271Y-93731928D02*
X103351652Y-93636690D01*
X103446890Y-92922404D02*
X103399271Y-92874785D01*
X103399271Y-92874785D02*
X103351652Y-92779547D01*
X103351652Y-92779547D02*
X103351652Y-92541452D01*
X103351652Y-92541452D02*
X103399271Y-92446214D01*
X103399271Y-92446214D02*
X103446890Y-92398595D01*
X103446890Y-92398595D02*
X103542128Y-92350976D01*
X103542128Y-92350976D02*
X103637366Y-92350976D01*
X103637366Y-92350976D02*
X103780223Y-92398595D01*
X103780223Y-92398595D02*
X104351652Y-92970023D01*
X104351652Y-92970023D02*
X104351652Y-92350976D01*
X103684985Y-91493833D02*
X104351652Y-91493833D01*
X103304033Y-91731928D02*
X104018318Y-91970023D01*
X104018318Y-91970023D02*
X104018318Y-91350976D01*
X105961652Y-101970025D02*
X104961652Y-101970025D01*
X105961652Y-101541454D02*
X105437842Y-101541454D01*
X105437842Y-101541454D02*
X105342604Y-101589073D01*
X105342604Y-101589073D02*
X105294985Y-101684311D01*
X105294985Y-101684311D02*
X105294985Y-101827168D01*
X105294985Y-101827168D02*
X105342604Y-101922406D01*
X105342604Y-101922406D02*
X105390223Y-101970025D01*
X105294985Y-101208120D02*
X105294985Y-100827168D01*
X104961652Y-101065263D02*
X105818794Y-101065263D01*
X105818794Y-101065263D02*
X105914033Y-101017644D01*
X105914033Y-101017644D02*
X105961652Y-100922406D01*
X105961652Y-100922406D02*
X105961652Y-100827168D01*
X105294985Y-100636691D02*
X105294985Y-100255739D01*
X104961652Y-100493834D02*
X105818794Y-100493834D01*
X105818794Y-100493834D02*
X105914033Y-100446215D01*
X105914033Y-100446215D02*
X105961652Y-100350977D01*
X105961652Y-100350977D02*
X105961652Y-100255739D01*
X105294985Y-99922405D02*
X106294985Y-99922405D01*
X105342604Y-99922405D02*
X105294985Y-99827167D01*
X105294985Y-99827167D02*
X105294985Y-99636691D01*
X105294985Y-99636691D02*
X105342604Y-99541453D01*
X105342604Y-99541453D02*
X105390223Y-99493834D01*
X105390223Y-99493834D02*
X105485461Y-99446215D01*
X105485461Y-99446215D02*
X105771175Y-99446215D01*
X105771175Y-99446215D02*
X105866413Y-99493834D01*
X105866413Y-99493834D02*
X105914033Y-99541453D01*
X105914033Y-99541453D02*
X105961652Y-99636691D01*
X105961652Y-99636691D02*
X105961652Y-99827167D01*
X105961652Y-99827167D02*
X105914033Y-99922405D01*
X105914033Y-99065262D02*
X105961652Y-98970024D01*
X105961652Y-98970024D02*
X105961652Y-98779548D01*
X105961652Y-98779548D02*
X105914033Y-98684310D01*
X105914033Y-98684310D02*
X105818794Y-98636691D01*
X105818794Y-98636691D02*
X105771175Y-98636691D01*
X105771175Y-98636691D02*
X105675937Y-98684310D01*
X105675937Y-98684310D02*
X105628318Y-98779548D01*
X105628318Y-98779548D02*
X105628318Y-98922405D01*
X105628318Y-98922405D02*
X105580699Y-99017643D01*
X105580699Y-99017643D02*
X105485461Y-99065262D01*
X105485461Y-99065262D02*
X105437842Y-99065262D01*
X105437842Y-99065262D02*
X105342604Y-99017643D01*
X105342604Y-99017643D02*
X105294985Y-98922405D01*
X105294985Y-98922405D02*
X105294985Y-98779548D01*
X105294985Y-98779548D02*
X105342604Y-98684310D01*
X105866413Y-98208119D02*
X105914033Y-98160500D01*
X105914033Y-98160500D02*
X105961652Y-98208119D01*
X105961652Y-98208119D02*
X105914033Y-98255738D01*
X105914033Y-98255738D02*
X105866413Y-98208119D01*
X105866413Y-98208119D02*
X105961652Y-98208119D01*
X105342604Y-98208119D02*
X105390223Y-98160500D01*
X105390223Y-98160500D02*
X105437842Y-98208119D01*
X105437842Y-98208119D02*
X105390223Y-98255738D01*
X105390223Y-98255738D02*
X105342604Y-98208119D01*
X105342604Y-98208119D02*
X105437842Y-98208119D01*
X104914033Y-97017644D02*
X106199747Y-97874786D01*
X104914033Y-95970025D02*
X106199747Y-96827167D01*
X105294985Y-95208120D02*
X106104509Y-95208120D01*
X106104509Y-95208120D02*
X106199747Y-95255739D01*
X106199747Y-95255739D02*
X106247366Y-95303358D01*
X106247366Y-95303358D02*
X106294985Y-95398596D01*
X106294985Y-95398596D02*
X106294985Y-95541453D01*
X106294985Y-95541453D02*
X106247366Y-95636691D01*
X105914033Y-95208120D02*
X105961652Y-95303358D01*
X105961652Y-95303358D02*
X105961652Y-95493834D01*
X105961652Y-95493834D02*
X105914033Y-95589072D01*
X105914033Y-95589072D02*
X105866413Y-95636691D01*
X105866413Y-95636691D02*
X105771175Y-95684310D01*
X105771175Y-95684310D02*
X105485461Y-95684310D01*
X105485461Y-95684310D02*
X105390223Y-95636691D01*
X105390223Y-95636691D02*
X105342604Y-95589072D01*
X105342604Y-95589072D02*
X105294985Y-95493834D01*
X105294985Y-95493834D02*
X105294985Y-95303358D01*
X105294985Y-95303358D02*
X105342604Y-95208120D01*
X105961652Y-94731929D02*
X105294985Y-94731929D01*
X104961652Y-94731929D02*
X105009271Y-94779548D01*
X105009271Y-94779548D02*
X105056890Y-94731929D01*
X105056890Y-94731929D02*
X105009271Y-94684310D01*
X105009271Y-94684310D02*
X104961652Y-94731929D01*
X104961652Y-94731929D02*
X105056890Y-94731929D01*
X105294985Y-94398596D02*
X105294985Y-94017644D01*
X104961652Y-94255739D02*
X105818794Y-94255739D01*
X105818794Y-94255739D02*
X105914033Y-94208120D01*
X105914033Y-94208120D02*
X105961652Y-94112882D01*
X105961652Y-94112882D02*
X105961652Y-94017644D01*
X105961652Y-93684310D02*
X104961652Y-93684310D01*
X105961652Y-93255739D02*
X105437842Y-93255739D01*
X105437842Y-93255739D02*
X105342604Y-93303358D01*
X105342604Y-93303358D02*
X105294985Y-93398596D01*
X105294985Y-93398596D02*
X105294985Y-93541453D01*
X105294985Y-93541453D02*
X105342604Y-93636691D01*
X105342604Y-93636691D02*
X105390223Y-93684310D01*
X105294985Y-92350977D02*
X105961652Y-92350977D01*
X105294985Y-92779548D02*
X105818794Y-92779548D01*
X105818794Y-92779548D02*
X105914033Y-92731929D01*
X105914033Y-92731929D02*
X105961652Y-92636691D01*
X105961652Y-92636691D02*
X105961652Y-92493834D01*
X105961652Y-92493834D02*
X105914033Y-92398596D01*
X105914033Y-92398596D02*
X105866413Y-92350977D01*
X105961652Y-91874786D02*
X104961652Y-91874786D01*
X105342604Y-91874786D02*
X105294985Y-91779548D01*
X105294985Y-91779548D02*
X105294985Y-91589072D01*
X105294985Y-91589072D02*
X105342604Y-91493834D01*
X105342604Y-91493834D02*
X105390223Y-91446215D01*
X105390223Y-91446215D02*
X105485461Y-91398596D01*
X105485461Y-91398596D02*
X105771175Y-91398596D01*
X105771175Y-91398596D02*
X105866413Y-91446215D01*
X105866413Y-91446215D02*
X105914033Y-91493834D01*
X105914033Y-91493834D02*
X105961652Y-91589072D01*
X105961652Y-91589072D02*
X105961652Y-91779548D01*
X105961652Y-91779548D02*
X105914033Y-91874786D01*
X105866413Y-90970024D02*
X105914033Y-90922405D01*
X105914033Y-90922405D02*
X105961652Y-90970024D01*
X105961652Y-90970024D02*
X105914033Y-91017643D01*
X105914033Y-91017643D02*
X105866413Y-90970024D01*
X105866413Y-90970024D02*
X105961652Y-90970024D01*
X105914033Y-90065263D02*
X105961652Y-90160501D01*
X105961652Y-90160501D02*
X105961652Y-90350977D01*
X105961652Y-90350977D02*
X105914033Y-90446215D01*
X105914033Y-90446215D02*
X105866413Y-90493834D01*
X105866413Y-90493834D02*
X105771175Y-90541453D01*
X105771175Y-90541453D02*
X105485461Y-90541453D01*
X105485461Y-90541453D02*
X105390223Y-90493834D01*
X105390223Y-90493834D02*
X105342604Y-90446215D01*
X105342604Y-90446215D02*
X105294985Y-90350977D01*
X105294985Y-90350977D02*
X105294985Y-90160501D01*
X105294985Y-90160501D02*
X105342604Y-90065263D01*
X105961652Y-89493834D02*
X105914033Y-89589072D01*
X105914033Y-89589072D02*
X105866413Y-89636691D01*
X105866413Y-89636691D02*
X105771175Y-89684310D01*
X105771175Y-89684310D02*
X105485461Y-89684310D01*
X105485461Y-89684310D02*
X105390223Y-89636691D01*
X105390223Y-89636691D02*
X105342604Y-89589072D01*
X105342604Y-89589072D02*
X105294985Y-89493834D01*
X105294985Y-89493834D02*
X105294985Y-89350977D01*
X105294985Y-89350977D02*
X105342604Y-89255739D01*
X105342604Y-89255739D02*
X105390223Y-89208120D01*
X105390223Y-89208120D02*
X105485461Y-89160501D01*
X105485461Y-89160501D02*
X105771175Y-89160501D01*
X105771175Y-89160501D02*
X105866413Y-89208120D01*
X105866413Y-89208120D02*
X105914033Y-89255739D01*
X105914033Y-89255739D02*
X105961652Y-89350977D01*
X105961652Y-89350977D02*
X105961652Y-89493834D01*
X105961652Y-88731929D02*
X105294985Y-88731929D01*
X105390223Y-88731929D02*
X105342604Y-88684310D01*
X105342604Y-88684310D02*
X105294985Y-88589072D01*
X105294985Y-88589072D02*
X105294985Y-88446215D01*
X105294985Y-88446215D02*
X105342604Y-88350977D01*
X105342604Y-88350977D02*
X105437842Y-88303358D01*
X105437842Y-88303358D02*
X105961652Y-88303358D01*
X105437842Y-88303358D02*
X105342604Y-88255739D01*
X105342604Y-88255739D02*
X105294985Y-88160501D01*
X105294985Y-88160501D02*
X105294985Y-88017644D01*
X105294985Y-88017644D02*
X105342604Y-87922405D01*
X105342604Y-87922405D02*
X105437842Y-87874786D01*
X105437842Y-87874786D02*
X105961652Y-87874786D01*
X104914033Y-86684311D02*
X106199747Y-87541453D01*
X105961652Y-86350977D02*
X104961652Y-86350977D01*
X105342604Y-86350977D02*
X105294985Y-86255739D01*
X105294985Y-86255739D02*
X105294985Y-86065263D01*
X105294985Y-86065263D02*
X105342604Y-85970025D01*
X105342604Y-85970025D02*
X105390223Y-85922406D01*
X105390223Y-85922406D02*
X105485461Y-85874787D01*
X105485461Y-85874787D02*
X105771175Y-85874787D01*
X105771175Y-85874787D02*
X105866413Y-85922406D01*
X105866413Y-85922406D02*
X105914033Y-85970025D01*
X105914033Y-85970025D02*
X105961652Y-86065263D01*
X105961652Y-86065263D02*
X105961652Y-86255739D01*
X105961652Y-86255739D02*
X105914033Y-86350977D01*
X105961652Y-85017644D02*
X105437842Y-85017644D01*
X105437842Y-85017644D02*
X105342604Y-85065263D01*
X105342604Y-85065263D02*
X105294985Y-85160501D01*
X105294985Y-85160501D02*
X105294985Y-85350977D01*
X105294985Y-85350977D02*
X105342604Y-85446215D01*
X105914033Y-85017644D02*
X105961652Y-85112882D01*
X105961652Y-85112882D02*
X105961652Y-85350977D01*
X105961652Y-85350977D02*
X105914033Y-85446215D01*
X105914033Y-85446215D02*
X105818794Y-85493834D01*
X105818794Y-85493834D02*
X105723556Y-85493834D01*
X105723556Y-85493834D02*
X105628318Y-85446215D01*
X105628318Y-85446215D02*
X105580699Y-85350977D01*
X105580699Y-85350977D02*
X105580699Y-85112882D01*
X105580699Y-85112882D02*
X105533080Y-85017644D01*
X105961652Y-84541453D02*
X105294985Y-84541453D01*
X105485461Y-84541453D02*
X105390223Y-84493834D01*
X105390223Y-84493834D02*
X105342604Y-84446215D01*
X105342604Y-84446215D02*
X105294985Y-84350977D01*
X105294985Y-84350977D02*
X105294985Y-84255739D01*
X105961652Y-83493834D02*
X105437842Y-83493834D01*
X105437842Y-83493834D02*
X105342604Y-83541453D01*
X105342604Y-83541453D02*
X105294985Y-83636691D01*
X105294985Y-83636691D02*
X105294985Y-83827167D01*
X105294985Y-83827167D02*
X105342604Y-83922405D01*
X105914033Y-83493834D02*
X105961652Y-83589072D01*
X105961652Y-83589072D02*
X105961652Y-83827167D01*
X105961652Y-83827167D02*
X105914033Y-83922405D01*
X105914033Y-83922405D02*
X105818794Y-83970024D01*
X105818794Y-83970024D02*
X105723556Y-83970024D01*
X105723556Y-83970024D02*
X105628318Y-83922405D01*
X105628318Y-83922405D02*
X105580699Y-83827167D01*
X105580699Y-83827167D02*
X105580699Y-83589072D01*
X105580699Y-83589072D02*
X105533080Y-83493834D01*
X105294985Y-83017643D02*
X106152128Y-83017643D01*
X106152128Y-83017643D02*
X106247366Y-83065262D01*
X106247366Y-83065262D02*
X106294985Y-83160500D01*
X106294985Y-83160500D02*
X106294985Y-83208119D01*
X104961652Y-83017643D02*
X105009271Y-83065262D01*
X105009271Y-83065262D02*
X105056890Y-83017643D01*
X105056890Y-83017643D02*
X105009271Y-82970024D01*
X105009271Y-82970024D02*
X104961652Y-83017643D01*
X104961652Y-83017643D02*
X105056890Y-83017643D01*
X105961652Y-82112882D02*
X105437842Y-82112882D01*
X105437842Y-82112882D02*
X105342604Y-82160501D01*
X105342604Y-82160501D02*
X105294985Y-82255739D01*
X105294985Y-82255739D02*
X105294985Y-82446215D01*
X105294985Y-82446215D02*
X105342604Y-82541453D01*
X105914033Y-82112882D02*
X105961652Y-82208120D01*
X105961652Y-82208120D02*
X105961652Y-82446215D01*
X105961652Y-82446215D02*
X105914033Y-82541453D01*
X105914033Y-82541453D02*
X105818794Y-82589072D01*
X105818794Y-82589072D02*
X105723556Y-82589072D01*
X105723556Y-82589072D02*
X105628318Y-82541453D01*
X105628318Y-82541453D02*
X105580699Y-82446215D01*
X105580699Y-82446215D02*
X105580699Y-82208120D01*
X105580699Y-82208120D02*
X105533080Y-82112882D01*
X105914033Y-81684310D02*
X105961652Y-81589072D01*
X105961652Y-81589072D02*
X105961652Y-81398596D01*
X105961652Y-81398596D02*
X105914033Y-81303358D01*
X105914033Y-81303358D02*
X105818794Y-81255739D01*
X105818794Y-81255739D02*
X105771175Y-81255739D01*
X105771175Y-81255739D02*
X105675937Y-81303358D01*
X105675937Y-81303358D02*
X105628318Y-81398596D01*
X105628318Y-81398596D02*
X105628318Y-81541453D01*
X105628318Y-81541453D02*
X105580699Y-81636691D01*
X105580699Y-81636691D02*
X105485461Y-81684310D01*
X105485461Y-81684310D02*
X105437842Y-81684310D01*
X105437842Y-81684310D02*
X105342604Y-81636691D01*
X105342604Y-81636691D02*
X105294985Y-81541453D01*
X105294985Y-81541453D02*
X105294985Y-81398596D01*
X105294985Y-81398596D02*
X105342604Y-81303358D01*
X105961652Y-80398596D02*
X105437842Y-80398596D01*
X105437842Y-80398596D02*
X105342604Y-80446215D01*
X105342604Y-80446215D02*
X105294985Y-80541453D01*
X105294985Y-80541453D02*
X105294985Y-80731929D01*
X105294985Y-80731929D02*
X105342604Y-80827167D01*
X105914033Y-80398596D02*
X105961652Y-80493834D01*
X105961652Y-80493834D02*
X105961652Y-80731929D01*
X105961652Y-80731929D02*
X105914033Y-80827167D01*
X105914033Y-80827167D02*
X105818794Y-80874786D01*
X105818794Y-80874786D02*
X105723556Y-80874786D01*
X105723556Y-80874786D02*
X105628318Y-80827167D01*
X105628318Y-80827167D02*
X105580699Y-80731929D01*
X105580699Y-80731929D02*
X105580699Y-80493834D01*
X105580699Y-80493834D02*
X105533080Y-80398596D01*
X105961652Y-79779548D02*
X105914033Y-79874786D01*
X105914033Y-79874786D02*
X105818794Y-79922405D01*
X105818794Y-79922405D02*
X104961652Y-79922405D01*
X105294985Y-79541452D02*
X105294985Y-79160500D01*
X105961652Y-79398595D02*
X105104509Y-79398595D01*
X105104509Y-79398595D02*
X105009271Y-79350976D01*
X105009271Y-79350976D02*
X104961652Y-79255738D01*
X104961652Y-79255738D02*
X104961652Y-79160500D01*
X105961652Y-78827166D02*
X105294985Y-78827166D01*
X105485461Y-78827166D02*
X105390223Y-78779547D01*
X105390223Y-78779547D02*
X105342604Y-78731928D01*
X105342604Y-78731928D02*
X105294985Y-78636690D01*
X105294985Y-78636690D02*
X105294985Y-78541452D01*
X105914033Y-77827166D02*
X105961652Y-77922404D01*
X105961652Y-77922404D02*
X105961652Y-78112880D01*
X105961652Y-78112880D02*
X105914033Y-78208118D01*
X105914033Y-78208118D02*
X105818794Y-78255737D01*
X105818794Y-78255737D02*
X105437842Y-78255737D01*
X105437842Y-78255737D02*
X105342604Y-78208118D01*
X105342604Y-78208118D02*
X105294985Y-78112880D01*
X105294985Y-78112880D02*
X105294985Y-77922404D01*
X105294985Y-77922404D02*
X105342604Y-77827166D01*
X105342604Y-77827166D02*
X105437842Y-77779547D01*
X105437842Y-77779547D02*
X105533080Y-77779547D01*
X105533080Y-77779547D02*
X105628318Y-78255737D01*
X105961652Y-76922404D02*
X104961652Y-76922404D01*
X105914033Y-76922404D02*
X105961652Y-77017642D01*
X105961652Y-77017642D02*
X105961652Y-77208118D01*
X105961652Y-77208118D02*
X105914033Y-77303356D01*
X105914033Y-77303356D02*
X105866413Y-77350975D01*
X105866413Y-77350975D02*
X105771175Y-77398594D01*
X105771175Y-77398594D02*
X105485461Y-77398594D01*
X105485461Y-77398594D02*
X105390223Y-77350975D01*
X105390223Y-77350975D02*
X105342604Y-77303356D01*
X105342604Y-77303356D02*
X105294985Y-77208118D01*
X105294985Y-77208118D02*
X105294985Y-77017642D01*
X105294985Y-77017642D02*
X105342604Y-76922404D01*
X105961652Y-76303356D02*
X105914033Y-76398594D01*
X105914033Y-76398594D02*
X105866413Y-76446213D01*
X105866413Y-76446213D02*
X105771175Y-76493832D01*
X105771175Y-76493832D02*
X105485461Y-76493832D01*
X105485461Y-76493832D02*
X105390223Y-76446213D01*
X105390223Y-76446213D02*
X105342604Y-76398594D01*
X105342604Y-76398594D02*
X105294985Y-76303356D01*
X105294985Y-76303356D02*
X105294985Y-76160499D01*
X105294985Y-76160499D02*
X105342604Y-76065261D01*
X105342604Y-76065261D02*
X105390223Y-76017642D01*
X105390223Y-76017642D02*
X105485461Y-75970023D01*
X105485461Y-75970023D02*
X105771175Y-75970023D01*
X105771175Y-75970023D02*
X105866413Y-76017642D01*
X105866413Y-76017642D02*
X105914033Y-76065261D01*
X105914033Y-76065261D02*
X105961652Y-76160499D01*
X105961652Y-76160499D02*
X105961652Y-76303356D01*
X105961652Y-75017642D02*
X105961652Y-75589070D01*
X105961652Y-75303356D02*
X104961652Y-75303356D01*
X104961652Y-75303356D02*
X105104509Y-75398594D01*
X105104509Y-75398594D02*
X105199747Y-75493832D01*
X105199747Y-75493832D02*
X105247366Y-75589070D01*
X104961652Y-74684308D02*
X104961652Y-74065261D01*
X104961652Y-74065261D02*
X105342604Y-74398594D01*
X105342604Y-74398594D02*
X105342604Y-74255737D01*
X105342604Y-74255737D02*
X105390223Y-74160499D01*
X105390223Y-74160499D02*
X105437842Y-74112880D01*
X105437842Y-74112880D02*
X105533080Y-74065261D01*
X105533080Y-74065261D02*
X105771175Y-74065261D01*
X105771175Y-74065261D02*
X105866413Y-74112880D01*
X105866413Y-74112880D02*
X105914033Y-74160499D01*
X105914033Y-74160499D02*
X105961652Y-74255737D01*
X105961652Y-74255737D02*
X105961652Y-74541451D01*
X105961652Y-74541451D02*
X105914033Y-74636689D01*
X105914033Y-74636689D02*
X105866413Y-74684308D01*
X104914033Y-72922404D02*
X106199747Y-73779546D01*
X105961652Y-72589070D02*
X104961652Y-72589070D01*
X104961652Y-72589070D02*
X105675937Y-72255737D01*
X105675937Y-72255737D02*
X104961652Y-71922404D01*
X104961652Y-71922404D02*
X105961652Y-71922404D01*
X105961652Y-71303356D02*
X105914033Y-71398594D01*
X105914033Y-71398594D02*
X105866413Y-71446213D01*
X105866413Y-71446213D02*
X105771175Y-71493832D01*
X105771175Y-71493832D02*
X105485461Y-71493832D01*
X105485461Y-71493832D02*
X105390223Y-71446213D01*
X105390223Y-71446213D02*
X105342604Y-71398594D01*
X105342604Y-71398594D02*
X105294985Y-71303356D01*
X105294985Y-71303356D02*
X105294985Y-71160499D01*
X105294985Y-71160499D02*
X105342604Y-71065261D01*
X105342604Y-71065261D02*
X105390223Y-71017642D01*
X105390223Y-71017642D02*
X105485461Y-70970023D01*
X105485461Y-70970023D02*
X105771175Y-70970023D01*
X105771175Y-70970023D02*
X105866413Y-71017642D01*
X105866413Y-71017642D02*
X105914033Y-71065261D01*
X105914033Y-71065261D02*
X105961652Y-71160499D01*
X105961652Y-71160499D02*
X105961652Y-71303356D01*
X105961652Y-70112880D02*
X104961652Y-70112880D01*
X105914033Y-70112880D02*
X105961652Y-70208118D01*
X105961652Y-70208118D02*
X105961652Y-70398594D01*
X105961652Y-70398594D02*
X105914033Y-70493832D01*
X105914033Y-70493832D02*
X105866413Y-70541451D01*
X105866413Y-70541451D02*
X105771175Y-70589070D01*
X105771175Y-70589070D02*
X105485461Y-70589070D01*
X105485461Y-70589070D02*
X105390223Y-70541451D01*
X105390223Y-70541451D02*
X105342604Y-70493832D01*
X105342604Y-70493832D02*
X105294985Y-70398594D01*
X105294985Y-70398594D02*
X105294985Y-70208118D01*
X105294985Y-70208118D02*
X105342604Y-70112880D01*
X105294985Y-69208118D02*
X105961652Y-69208118D01*
X105294985Y-69636689D02*
X105818794Y-69636689D01*
X105818794Y-69636689D02*
X105914033Y-69589070D01*
X105914033Y-69589070D02*
X105961652Y-69493832D01*
X105961652Y-69493832D02*
X105961652Y-69350975D01*
X105961652Y-69350975D02*
X105914033Y-69255737D01*
X105914033Y-69255737D02*
X105866413Y-69208118D01*
X104961652Y-68874784D02*
X104961652Y-68303356D01*
X105961652Y-68589070D02*
X104961652Y-68589070D01*
X105961652Y-67970022D02*
X104961652Y-67970022D01*
X105961652Y-67541451D02*
X105437842Y-67541451D01*
X105437842Y-67541451D02*
X105342604Y-67589070D01*
X105342604Y-67589070D02*
X105294985Y-67684308D01*
X105294985Y-67684308D02*
X105294985Y-67827165D01*
X105294985Y-67827165D02*
X105342604Y-67922403D01*
X105342604Y-67922403D02*
X105390223Y-67970022D01*
X105914033Y-66684308D02*
X105961652Y-66779546D01*
X105961652Y-66779546D02*
X105961652Y-66970022D01*
X105961652Y-66970022D02*
X105914033Y-67065260D01*
X105914033Y-67065260D02*
X105818794Y-67112879D01*
X105818794Y-67112879D02*
X105437842Y-67112879D01*
X105437842Y-67112879D02*
X105342604Y-67065260D01*
X105342604Y-67065260D02*
X105294985Y-66970022D01*
X105294985Y-66970022D02*
X105294985Y-66779546D01*
X105294985Y-66779546D02*
X105342604Y-66684308D01*
X105342604Y-66684308D02*
X105437842Y-66636689D01*
X105437842Y-66636689D02*
X105533080Y-66636689D01*
X105533080Y-66636689D02*
X105628318Y-67112879D01*
X105961652Y-66208117D02*
X105294985Y-66208117D01*
X105485461Y-66208117D02*
X105390223Y-66160498D01*
X105390223Y-66160498D02*
X105342604Y-66112879D01*
X105342604Y-66112879D02*
X105294985Y-66017641D01*
X105294985Y-66017641D02*
X105294985Y-65922403D01*
X105961652Y-65589069D02*
X105294985Y-65589069D01*
X105390223Y-65589069D02*
X105342604Y-65541450D01*
X105342604Y-65541450D02*
X105294985Y-65446212D01*
X105294985Y-65446212D02*
X105294985Y-65303355D01*
X105294985Y-65303355D02*
X105342604Y-65208117D01*
X105342604Y-65208117D02*
X105437842Y-65160498D01*
X105437842Y-65160498D02*
X105961652Y-65160498D01*
X105437842Y-65160498D02*
X105342604Y-65112879D01*
X105342604Y-65112879D02*
X105294985Y-65017641D01*
X105294985Y-65017641D02*
X105294985Y-64874784D01*
X105294985Y-64874784D02*
X105342604Y-64779545D01*
X105342604Y-64779545D02*
X105437842Y-64731926D01*
X105437842Y-64731926D02*
X105961652Y-64731926D01*
X105580699Y-64255736D02*
X105580699Y-63493832D01*
X104961652Y-63112879D02*
X105961652Y-62874784D01*
X105961652Y-62874784D02*
X105247366Y-62684308D01*
X105247366Y-62684308D02*
X105961652Y-62493832D01*
X105961652Y-62493832D02*
X104961652Y-62255737D01*
X105961652Y-61446213D02*
X105437842Y-61446213D01*
X105437842Y-61446213D02*
X105342604Y-61493832D01*
X105342604Y-61493832D02*
X105294985Y-61589070D01*
X105294985Y-61589070D02*
X105294985Y-61779546D01*
X105294985Y-61779546D02*
X105342604Y-61874784D01*
X105914033Y-61446213D02*
X105961652Y-61541451D01*
X105961652Y-61541451D02*
X105961652Y-61779546D01*
X105961652Y-61779546D02*
X105914033Y-61874784D01*
X105914033Y-61874784D02*
X105818794Y-61922403D01*
X105818794Y-61922403D02*
X105723556Y-61922403D01*
X105723556Y-61922403D02*
X105628318Y-61874784D01*
X105628318Y-61874784D02*
X105580699Y-61779546D01*
X105580699Y-61779546D02*
X105580699Y-61541451D01*
X105580699Y-61541451D02*
X105533080Y-61446213D01*
X105294985Y-61112879D02*
X105294985Y-60731927D01*
X105961652Y-60970022D02*
X105104509Y-60970022D01*
X105104509Y-60970022D02*
X105009271Y-60922403D01*
X105009271Y-60922403D02*
X104961652Y-60827165D01*
X104961652Y-60827165D02*
X104961652Y-60731927D01*
X105914033Y-60017641D02*
X105961652Y-60112879D01*
X105961652Y-60112879D02*
X105961652Y-60303355D01*
X105961652Y-60303355D02*
X105914033Y-60398593D01*
X105914033Y-60398593D02*
X105818794Y-60446212D01*
X105818794Y-60446212D02*
X105437842Y-60446212D01*
X105437842Y-60446212D02*
X105342604Y-60398593D01*
X105342604Y-60398593D02*
X105294985Y-60303355D01*
X105294985Y-60303355D02*
X105294985Y-60112879D01*
X105294985Y-60112879D02*
X105342604Y-60017641D01*
X105342604Y-60017641D02*
X105437842Y-59970022D01*
X105437842Y-59970022D02*
X105533080Y-59970022D01*
X105533080Y-59970022D02*
X105628318Y-60446212D01*
X105961652Y-59541450D02*
X105294985Y-59541450D01*
X105485461Y-59541450D02*
X105390223Y-59493831D01*
X105390223Y-59493831D02*
X105342604Y-59446212D01*
X105342604Y-59446212D02*
X105294985Y-59350974D01*
X105294985Y-59350974D02*
X105294985Y-59255736D01*
X105580699Y-58922402D02*
X105580699Y-58160498D01*
X104961652Y-57827164D02*
X104961652Y-57255736D01*
X105961652Y-57541450D02*
X104961652Y-57541450D01*
X105914033Y-56541450D02*
X105961652Y-56636688D01*
X105961652Y-56636688D02*
X105961652Y-56827164D01*
X105961652Y-56827164D02*
X105914033Y-56922402D01*
X105914033Y-56922402D02*
X105818794Y-56970021D01*
X105818794Y-56970021D02*
X105437842Y-56970021D01*
X105437842Y-56970021D02*
X105342604Y-56922402D01*
X105342604Y-56922402D02*
X105294985Y-56827164D01*
X105294985Y-56827164D02*
X105294985Y-56636688D01*
X105294985Y-56636688D02*
X105342604Y-56541450D01*
X105342604Y-56541450D02*
X105437842Y-56493831D01*
X105437842Y-56493831D02*
X105533080Y-56493831D01*
X105533080Y-56493831D02*
X105628318Y-56970021D01*
X105914033Y-56112878D02*
X105961652Y-56017640D01*
X105961652Y-56017640D02*
X105961652Y-55827164D01*
X105961652Y-55827164D02*
X105914033Y-55731926D01*
X105914033Y-55731926D02*
X105818794Y-55684307D01*
X105818794Y-55684307D02*
X105771175Y-55684307D01*
X105771175Y-55684307D02*
X105675937Y-55731926D01*
X105675937Y-55731926D02*
X105628318Y-55827164D01*
X105628318Y-55827164D02*
X105628318Y-55970021D01*
X105628318Y-55970021D02*
X105580699Y-56065259D01*
X105580699Y-56065259D02*
X105485461Y-56112878D01*
X105485461Y-56112878D02*
X105437842Y-56112878D01*
X105437842Y-56112878D02*
X105342604Y-56065259D01*
X105342604Y-56065259D02*
X105294985Y-55970021D01*
X105294985Y-55970021D02*
X105294985Y-55827164D01*
X105294985Y-55827164D02*
X105342604Y-55731926D01*
X105294985Y-55398592D02*
X105294985Y-55017640D01*
X104961652Y-55255735D02*
X105818794Y-55255735D01*
X105818794Y-55255735D02*
X105914033Y-55208116D01*
X105914033Y-55208116D02*
X105961652Y-55112878D01*
X105961652Y-55112878D02*
X105961652Y-55017640D01*
X105580699Y-54684306D02*
X105580699Y-53922402D01*
X105914033Y-53493830D02*
X105961652Y-53350973D01*
X105961652Y-53350973D02*
X105961652Y-53112878D01*
X105961652Y-53112878D02*
X105914033Y-53017640D01*
X105914033Y-53017640D02*
X105866413Y-52970021D01*
X105866413Y-52970021D02*
X105771175Y-52922402D01*
X105771175Y-52922402D02*
X105675937Y-52922402D01*
X105675937Y-52922402D02*
X105580699Y-52970021D01*
X105580699Y-52970021D02*
X105533080Y-53017640D01*
X105533080Y-53017640D02*
X105485461Y-53112878D01*
X105485461Y-53112878D02*
X105437842Y-53303354D01*
X105437842Y-53303354D02*
X105390223Y-53398592D01*
X105390223Y-53398592D02*
X105342604Y-53446211D01*
X105342604Y-53446211D02*
X105247366Y-53493830D01*
X105247366Y-53493830D02*
X105152128Y-53493830D01*
X105152128Y-53493830D02*
X105056890Y-53446211D01*
X105056890Y-53446211D02*
X105009271Y-53398592D01*
X105009271Y-53398592D02*
X104961652Y-53303354D01*
X104961652Y-53303354D02*
X104961652Y-53065259D01*
X104961652Y-53065259D02*
X105009271Y-52922402D01*
X105294985Y-52589068D02*
X105961652Y-52350973D01*
X105294985Y-52112878D02*
X105961652Y-52350973D01*
X105961652Y-52350973D02*
X106199747Y-52446211D01*
X106199747Y-52446211D02*
X106247366Y-52493830D01*
X106247366Y-52493830D02*
X106294985Y-52589068D01*
X105914033Y-51779544D02*
X105961652Y-51684306D01*
X105961652Y-51684306D02*
X105961652Y-51493830D01*
X105961652Y-51493830D02*
X105914033Y-51398592D01*
X105914033Y-51398592D02*
X105818794Y-51350973D01*
X105818794Y-51350973D02*
X105771175Y-51350973D01*
X105771175Y-51350973D02*
X105675937Y-51398592D01*
X105675937Y-51398592D02*
X105628318Y-51493830D01*
X105628318Y-51493830D02*
X105628318Y-51636687D01*
X105628318Y-51636687D02*
X105580699Y-51731925D01*
X105580699Y-51731925D02*
X105485461Y-51779544D01*
X105485461Y-51779544D02*
X105437842Y-51779544D01*
X105437842Y-51779544D02*
X105342604Y-51731925D01*
X105342604Y-51731925D02*
X105294985Y-51636687D01*
X105294985Y-51636687D02*
X105294985Y-51493830D01*
X105294985Y-51493830D02*
X105342604Y-51398592D01*
X105294985Y-51065258D02*
X105294985Y-50684306D01*
X104961652Y-50922401D02*
X105818794Y-50922401D01*
X105818794Y-50922401D02*
X105914033Y-50874782D01*
X105914033Y-50874782D02*
X105961652Y-50779544D01*
X105961652Y-50779544D02*
X105961652Y-50684306D01*
X105914033Y-49970020D02*
X105961652Y-50065258D01*
X105961652Y-50065258D02*
X105961652Y-50255734D01*
X105961652Y-50255734D02*
X105914033Y-50350972D01*
X105914033Y-50350972D02*
X105818794Y-50398591D01*
X105818794Y-50398591D02*
X105437842Y-50398591D01*
X105437842Y-50398591D02*
X105342604Y-50350972D01*
X105342604Y-50350972D02*
X105294985Y-50255734D01*
X105294985Y-50255734D02*
X105294985Y-50065258D01*
X105294985Y-50065258D02*
X105342604Y-49970020D01*
X105342604Y-49970020D02*
X105437842Y-49922401D01*
X105437842Y-49922401D02*
X105533080Y-49922401D01*
X105533080Y-49922401D02*
X105628318Y-50398591D01*
X105961652Y-49493829D02*
X105294985Y-49493829D01*
X105390223Y-49493829D02*
X105342604Y-49446210D01*
X105342604Y-49446210D02*
X105294985Y-49350972D01*
X105294985Y-49350972D02*
X105294985Y-49208115D01*
X105294985Y-49208115D02*
X105342604Y-49112877D01*
X105342604Y-49112877D02*
X105437842Y-49065258D01*
X105437842Y-49065258D02*
X105961652Y-49065258D01*
X105437842Y-49065258D02*
X105342604Y-49017639D01*
X105342604Y-49017639D02*
X105294985Y-48922401D01*
X105294985Y-48922401D02*
X105294985Y-48779544D01*
X105294985Y-48779544D02*
X105342604Y-48684305D01*
X105342604Y-48684305D02*
X105437842Y-48636686D01*
X105437842Y-48636686D02*
X105961652Y-48636686D01*
%TO.C,G\u002A\u002A\u002A*%
G36*
X105246328Y-108021714D02*
G01*
X105345166Y-108048793D01*
X105441813Y-108079033D01*
X105534196Y-108109323D01*
X105669126Y-108153395D01*
X105838393Y-108208575D01*
X106033782Y-108272188D01*
X106247081Y-108341561D01*
X106470078Y-108414019D01*
X106634550Y-108467415D01*
X107548363Y-108763976D01*
X107548363Y-109878875D01*
X107548363Y-110993774D01*
X105800779Y-110271187D01*
X105511988Y-110151467D01*
X105238093Y-110037316D01*
X104983022Y-109930411D01*
X104750700Y-109832424D01*
X104545056Y-109745031D01*
X104370016Y-109669907D01*
X104229506Y-109608726D01*
X104127454Y-109563162D01*
X104067786Y-109534890D01*
X104053195Y-109525932D01*
X104068173Y-109501400D01*
X104110213Y-109439773D01*
X104174970Y-109347097D01*
X104258100Y-109229419D01*
X104355258Y-109092784D01*
X104462099Y-108943238D01*
X104574280Y-108786827D01*
X104687456Y-108629597D01*
X104797282Y-108477594D01*
X104899415Y-108336864D01*
X104989510Y-108213452D01*
X105063222Y-108113406D01*
X105116207Y-108042770D01*
X105144121Y-108007591D01*
X105144559Y-108007111D01*
X105175780Y-108006930D01*
X105246328Y-108021714D01*
G37*
G36*
X107548363Y-104120734D02*
G01*
X107548363Y-105235633D01*
X106634550Y-105532194D01*
X106409659Y-105605215D01*
X106188462Y-105677107D01*
X105979169Y-105745195D01*
X105789993Y-105806804D01*
X105629148Y-105859262D01*
X105504845Y-105899893D01*
X105441813Y-105920577D01*
X105327758Y-105955908D01*
X105232739Y-105981183D01*
X105167791Y-105993733D01*
X105144559Y-105992498D01*
X105117534Y-105958575D01*
X105065296Y-105888998D01*
X104992190Y-105789814D01*
X104902561Y-105667068D01*
X104800751Y-105526806D01*
X104691107Y-105375075D01*
X104577972Y-105217920D01*
X104465690Y-105061387D01*
X104358606Y-104911522D01*
X104261065Y-104774372D01*
X104177410Y-104655981D01*
X104111987Y-104562397D01*
X104069139Y-104499664D01*
X104053211Y-104473829D01*
X104053195Y-104473677D01*
X104077221Y-104459997D01*
X104146683Y-104427723D01*
X104257654Y-104378531D01*
X104406207Y-104314094D01*
X104588414Y-104236088D01*
X104800349Y-104146187D01*
X105038085Y-104046066D01*
X105297696Y-103937399D01*
X105575254Y-103821861D01*
X105800779Y-103728423D01*
X107548363Y-103005836D01*
X107548363Y-104120734D01*
G37*
G36*
X103982498Y-104517531D02*
G01*
X103986923Y-104590782D01*
X103990431Y-104705760D01*
X103992924Y-104856651D01*
X103994302Y-105037640D01*
X103994465Y-105242912D01*
X103993500Y-105442529D01*
X103986493Y-106393236D01*
X103072680Y-106687962D01*
X102862823Y-106756104D01*
X102669943Y-106819617D01*
X102499717Y-106876563D01*
X102357822Y-106925005D01*
X102249935Y-106963006D01*
X102181734Y-106988628D01*
X102158867Y-106999805D01*
X102183344Y-107011630D01*
X102252991Y-107037706D01*
X102362130Y-107076094D01*
X102505083Y-107124858D01*
X102676175Y-107182060D01*
X102869727Y-107245762D01*
X103072680Y-107311647D01*
X103986493Y-107606373D01*
X103993500Y-108557081D01*
X103994501Y-108776318D01*
X103994236Y-108977714D01*
X103992805Y-109155288D01*
X103990306Y-109303054D01*
X103986838Y-109415030D01*
X103982502Y-109485232D01*
X103977743Y-109507788D01*
X103949903Y-109497840D01*
X103876777Y-109469088D01*
X103762371Y-109423164D01*
X103610689Y-109361705D01*
X103425738Y-109286344D01*
X103211523Y-109198716D01*
X102972050Y-109100456D01*
X102711324Y-108993199D01*
X102433350Y-108878579D01*
X102223152Y-108791740D01*
X100491325Y-108075691D01*
X100491325Y-106999596D01*
X100491325Y-105923502D01*
X102222665Y-105207661D01*
X102510618Y-105088738D01*
X102784242Y-104975991D01*
X103039528Y-104871058D01*
X103272469Y-104775571D01*
X103479058Y-104691167D01*
X103655287Y-104619480D01*
X103797148Y-104562146D01*
X103900634Y-104520799D01*
X103961738Y-104497074D01*
X103977256Y-104491821D01*
X103982498Y-104517531D01*
G37*
G36*
X104626726Y-105727380D02*
G01*
X104736700Y-105877209D01*
X104837982Y-106011586D01*
X104925999Y-106124732D01*
X104996176Y-106210862D01*
X105043937Y-106264197D01*
X105063524Y-106279427D01*
X105098263Y-106271422D01*
X105176213Y-106248939D01*
X105289930Y-106214272D01*
X105431969Y-106169717D01*
X105594886Y-106117569D01*
X105714479Y-106078720D01*
X105885647Y-106023439D01*
X106039468Y-105974995D01*
X106168875Y-105935514D01*
X106266803Y-105907120D01*
X106326184Y-105891936D01*
X106341072Y-105890343D01*
X106329434Y-105914342D01*
X106290215Y-105975344D01*
X106227513Y-106067412D01*
X106145423Y-106184608D01*
X106048041Y-106320992D01*
X105963697Y-106437430D01*
X105856356Y-106585867D01*
X105760331Y-106720846D01*
X105679896Y-106836177D01*
X105619328Y-106925671D01*
X105582901Y-106983139D01*
X105573993Y-107001613D01*
X105589118Y-107030502D01*
X105631634Y-107096114D01*
X105697249Y-107192235D01*
X105781670Y-107312648D01*
X105880608Y-107451139D01*
X105960863Y-107561907D01*
X106084509Y-107731831D01*
X106179752Y-107863558D01*
X106249792Y-107961884D01*
X106297830Y-108031605D01*
X106327069Y-108077520D01*
X106340708Y-108104424D01*
X106341950Y-108117115D01*
X106333995Y-108120390D01*
X106333572Y-108120393D01*
X106305306Y-108112462D01*
X106233444Y-108090180D01*
X106131788Y-108057936D01*
X106125101Y-108055815D01*
X105987388Y-108011631D01*
X105827418Y-107959898D01*
X105705646Y-107920288D01*
X105533072Y-107864447D01*
X105376564Y-107814608D01*
X105243509Y-107773059D01*
X105141294Y-107742087D01*
X105077308Y-107723980D01*
X105059357Y-107720183D01*
X105035476Y-107740958D01*
X104985180Y-107799434D01*
X104912996Y-107889835D01*
X104823448Y-108006386D01*
X104721062Y-108143313D01*
X104626726Y-108272229D01*
X104373757Y-108621263D01*
X104248770Y-108793713D01*
X104226619Y-108824276D01*
X104223323Y-108502142D01*
X104369732Y-108502142D01*
X104373757Y-108504191D01*
X104374067Y-108503890D01*
X104396207Y-108475027D01*
X104443225Y-108409294D01*
X104510023Y-108313968D01*
X104591504Y-108196327D01*
X104682570Y-108063648D01*
X104687916Y-108055824D01*
X104977240Y-107632283D01*
X104895417Y-107355252D01*
X104883485Y-107314854D01*
X104813594Y-107078222D01*
X104746892Y-107285568D01*
X104699608Y-107432553D01*
X104612430Y-107703999D01*
X104540680Y-107928513D01*
X104483208Y-108109883D01*
X104438863Y-108251896D01*
X104406494Y-108358340D01*
X104384950Y-108433004D01*
X104373080Y-108479675D01*
X104369732Y-108502142D01*
X104223323Y-108502142D01*
X104219515Y-108129953D01*
X104212410Y-107435631D01*
X103559168Y-107224549D01*
X103382912Y-107167002D01*
X103224675Y-107114200D01*
X103091172Y-107068477D01*
X102989121Y-107032166D01*
X102982515Y-107029626D01*
X103159392Y-107029626D01*
X103692859Y-107188140D01*
X103853485Y-107235561D01*
X103996902Y-107277319D01*
X104115196Y-107311157D01*
X104200452Y-107334818D01*
X104244755Y-107346045D01*
X104248770Y-107346653D01*
X104276505Y-107332871D01*
X104335919Y-107296598D01*
X104415585Y-107245440D01*
X104504080Y-107187008D01*
X104589978Y-107128910D01*
X104661853Y-107078753D01*
X104701999Y-107048828D01*
X104921650Y-107048828D01*
X104949431Y-107069782D01*
X105014686Y-107117347D01*
X105111410Y-107187198D01*
X105233600Y-107275009D01*
X105375250Y-107376456D01*
X105520632Y-107480278D01*
X105675862Y-107591061D01*
X105818010Y-107692649D01*
X105940909Y-107780624D01*
X106038391Y-107850568D01*
X106104291Y-107898061D01*
X106131788Y-107918177D01*
X106127377Y-107906741D01*
X106094229Y-107858753D01*
X106036422Y-107779745D01*
X105958032Y-107675248D01*
X105863135Y-107550791D01*
X105813799Y-107486727D01*
X105458287Y-107026485D01*
X105177295Y-107026485D01*
X105065350Y-107028423D01*
X104979463Y-107033671D01*
X104929355Y-107041378D01*
X104921650Y-107048828D01*
X104701999Y-107048828D01*
X104708280Y-107044146D01*
X104719534Y-107033156D01*
X104694131Y-107031516D01*
X104621964Y-107030128D01*
X104509630Y-107029035D01*
X104363726Y-107028280D01*
X104190848Y-107027907D01*
X103997595Y-107027958D01*
X103939802Y-107028056D01*
X103159392Y-107029626D01*
X102982515Y-107029626D01*
X102925238Y-107007604D01*
X102905926Y-106997519D01*
X102929008Y-106981224D01*
X102987250Y-106958691D01*
X103019319Y-106948758D01*
X103078810Y-106930599D01*
X103161709Y-106904439D01*
X104883485Y-106904439D01*
X104905931Y-106891352D01*
X104964729Y-106851480D01*
X105053222Y-106789632D01*
X105164756Y-106710616D01*
X105292678Y-106619238D01*
X105430331Y-106520306D01*
X105571063Y-106418629D01*
X105708218Y-106319012D01*
X105835142Y-106226264D01*
X105945180Y-106145192D01*
X106031678Y-106080604D01*
X106087981Y-106037307D01*
X106107451Y-106020198D01*
X106083664Y-106026748D01*
X106017445Y-106048447D01*
X105916661Y-106082626D01*
X105789180Y-106126619D01*
X105647365Y-106176178D01*
X105495484Y-106229605D01*
X105357020Y-106278407D01*
X105241477Y-106319228D01*
X105158360Y-106348710D01*
X105119447Y-106362659D01*
X105084056Y-106383582D01*
X105051919Y-106424387D01*
X105017609Y-106494711D01*
X104975697Y-106604190D01*
X104962552Y-106641206D01*
X104926104Y-106748442D01*
X104898956Y-106835237D01*
X104884439Y-106890509D01*
X104883485Y-106904439D01*
X103161709Y-106904439D01*
X103179436Y-106898845D01*
X103311640Y-106856558D01*
X103465860Y-106806797D01*
X103632538Y-106752626D01*
X103672562Y-106739560D01*
X104212412Y-106563174D01*
X104219515Y-105869254D01*
X104223647Y-105465666D01*
X104266110Y-105465666D01*
X104279715Y-105716561D01*
X104285669Y-105854531D01*
X104290550Y-106020270D01*
X104293686Y-106188189D01*
X104294441Y-106276855D01*
X104295562Y-106586254D01*
X104521227Y-106753508D01*
X104613339Y-106819947D01*
X104687303Y-106869813D01*
X104734404Y-106897454D01*
X104746892Y-106899871D01*
X104738614Y-106870111D01*
X104715244Y-106796508D01*
X104678975Y-106685704D01*
X104632001Y-106544339D01*
X104576518Y-106379056D01*
X104514720Y-106196494D01*
X104506501Y-106172323D01*
X104266110Y-105465666D01*
X104223647Y-105465666D01*
X104226619Y-105175334D01*
X104626726Y-105727380D01*
G37*
%TD*%
M02*
