%TF.GenerationSoftware,KiCad,Pcbnew,7.0.6*%
%TF.CreationDate,2024-02-05T15:04:08-06:00*%
%TF.ProjectId,TopProbeCard,546f7050-726f-4626-9543-6172642e6b69,rev?*%
%TF.SameCoordinates,Original*%
%TF.FileFunction,Drillmap*%
%TF.FilePolarity,Positive*%
%FSLAX45Y45*%
G04 Gerber Fmt 4.5, Leading zero omitted, Abs format (unit mm)*
G04 Created by KiCad (PCBNEW 7.0.6) date 2024-02-05 15:04:08*
%MOMM*%
%LPD*%
G01*
G04 APERTURE LIST*
%ADD10C,0.100000*%
%ADD11C,0.010000*%
%ADD12C,0.200000*%
G04 APERTURE END LIST*
D10*
X8400000Y-3472500D02*
X8400000Y-3772500D01*
D11*
X11000000Y-10627500D02*
X11000000Y-5372500D01*
D10*
X8500000Y-3872500D02*
X9500000Y-3872500D01*
D11*
X5500000Y-3872500D02*
G75*
G03*
X4000000Y-5372500I-1J-1499999D01*
G01*
X5618856Y-6370924D02*
G75*
G03*
X5734230Y-6246530I18854J98215D01*
G01*
X5762328Y-6147407D02*
G75*
G03*
X5734230Y-6246530I68402J-72933D01*
G01*
X5758195Y-11275000D02*
G75*
G03*
X5758195Y-11275000I-163195J0D01*
G01*
D10*
X8400000Y-3772500D02*
G75*
G03*
X8500000Y-3872500I100010J10D01*
G01*
D11*
X7663195Y-4725000D02*
G75*
G03*
X7663195Y-4725000I-163195J0D01*
G01*
D10*
X6700000Y-3372500D02*
X8300000Y-3372500D01*
D11*
X9568195Y-4725000D02*
G75*
G03*
X9568195Y-4725000I-163195J0D01*
G01*
X9280468Y-6188500D02*
X9280468Y-9811500D01*
X7663195Y-11275000D02*
G75*
G03*
X7663195Y-11275000I-163195J0D01*
G01*
X5618856Y-6370922D02*
G75*
G03*
X5522125Y-6406384I-18866J-98198D01*
G01*
D10*
X6700000Y-3372500D02*
G75*
G03*
X6600000Y-3472500I0J-100000D01*
G01*
X6500000Y-3872500D02*
X5500000Y-3872500D01*
X6500000Y-3872500D02*
G75*
G03*
X6600000Y-3772500I0J100000D01*
G01*
D11*
X9280468Y-6188500D02*
G75*
G03*
X5762329Y-6147407I-1780468J-1811500D01*
G01*
X5522125Y-6406384D02*
G75*
G03*
X5949043Y-10011500I1977875J-1593616D01*
G01*
X5758195Y-4725000D02*
G75*
G03*
X5758195Y-4725000I-163195J0D01*
G01*
X9568195Y-11275000D02*
G75*
G03*
X9568195Y-11275000I-163195J0D01*
G01*
X9050957Y-10011500D02*
G75*
G03*
X9280468Y-9811500I-1550977J2011520D01*
G01*
X4000000Y-5372500D02*
X4000000Y-10627500D01*
D10*
X8400000Y-3472500D02*
G75*
G03*
X8300000Y-3372500I-99990J10D01*
G01*
D11*
X9050957Y-10011500D02*
X5949043Y-10011500D01*
X11000000Y-5372500D02*
G75*
G03*
X9500000Y-3872500I-1499994J6D01*
G01*
X5500000Y-12127500D02*
X9500000Y-12127500D01*
X9500000Y-12127500D02*
G75*
G03*
X11000000Y-10627500I-2J1500002D01*
G01*
D10*
X6600000Y-3772500D02*
X6600000Y-3472500D01*
D11*
X4000000Y-10627500D02*
G75*
G03*
X5500000Y-12127500I1500006J6D01*
G01*
D12*
X4260277Y-12439484D02*
X4260277Y-12239484D01*
X4260277Y-12239484D02*
X4307896Y-12239484D01*
X4307896Y-12239484D02*
X4336467Y-12249007D01*
X4336467Y-12249007D02*
X4355515Y-12268055D01*
X4355515Y-12268055D02*
X4365039Y-12287103D01*
X4365039Y-12287103D02*
X4374563Y-12325198D01*
X4374563Y-12325198D02*
X4374563Y-12353769D01*
X4374563Y-12353769D02*
X4365039Y-12391865D01*
X4365039Y-12391865D02*
X4355515Y-12410912D01*
X4355515Y-12410912D02*
X4336467Y-12429960D01*
X4336467Y-12429960D02*
X4307896Y-12439484D01*
X4307896Y-12439484D02*
X4260277Y-12439484D01*
X4460277Y-12439484D02*
X4460277Y-12306150D01*
X4460277Y-12344246D02*
X4469801Y-12325198D01*
X4469801Y-12325198D02*
X4479324Y-12315674D01*
X4479324Y-12315674D02*
X4498372Y-12306150D01*
X4498372Y-12306150D02*
X4517420Y-12306150D01*
X4584086Y-12439484D02*
X4584086Y-12306150D01*
X4584086Y-12239484D02*
X4574563Y-12249007D01*
X4574563Y-12249007D02*
X4584086Y-12258531D01*
X4584086Y-12258531D02*
X4593610Y-12249007D01*
X4593610Y-12249007D02*
X4584086Y-12239484D01*
X4584086Y-12239484D02*
X4584086Y-12258531D01*
X4707896Y-12439484D02*
X4688848Y-12429960D01*
X4688848Y-12429960D02*
X4679324Y-12410912D01*
X4679324Y-12410912D02*
X4679324Y-12239484D01*
X4812658Y-12439484D02*
X4793610Y-12429960D01*
X4793610Y-12429960D02*
X4784086Y-12410912D01*
X4784086Y-12410912D02*
X4784086Y-12239484D01*
X5041229Y-12439484D02*
X5041229Y-12239484D01*
X5041229Y-12239484D02*
X5107896Y-12382341D01*
X5107896Y-12382341D02*
X5174563Y-12239484D01*
X5174563Y-12239484D02*
X5174563Y-12439484D01*
X5355515Y-12439484D02*
X5355515Y-12334722D01*
X5355515Y-12334722D02*
X5345991Y-12315674D01*
X5345991Y-12315674D02*
X5326944Y-12306150D01*
X5326944Y-12306150D02*
X5288848Y-12306150D01*
X5288848Y-12306150D02*
X5269801Y-12315674D01*
X5355515Y-12429960D02*
X5336467Y-12439484D01*
X5336467Y-12439484D02*
X5288848Y-12439484D01*
X5288848Y-12439484D02*
X5269801Y-12429960D01*
X5269801Y-12429960D02*
X5260277Y-12410912D01*
X5260277Y-12410912D02*
X5260277Y-12391865D01*
X5260277Y-12391865D02*
X5269801Y-12372817D01*
X5269801Y-12372817D02*
X5288848Y-12363293D01*
X5288848Y-12363293D02*
X5336467Y-12363293D01*
X5336467Y-12363293D02*
X5355515Y-12353769D01*
X5450753Y-12306150D02*
X5450753Y-12506150D01*
X5450753Y-12315674D02*
X5469801Y-12306150D01*
X5469801Y-12306150D02*
X5507896Y-12306150D01*
X5507896Y-12306150D02*
X5526944Y-12315674D01*
X5526944Y-12315674D02*
X5536467Y-12325198D01*
X5536467Y-12325198D02*
X5545991Y-12344246D01*
X5545991Y-12344246D02*
X5545991Y-12401388D01*
X5545991Y-12401388D02*
X5536467Y-12420436D01*
X5536467Y-12420436D02*
X5526944Y-12429960D01*
X5526944Y-12429960D02*
X5507896Y-12439484D01*
X5507896Y-12439484D02*
X5469801Y-12439484D01*
X5469801Y-12439484D02*
X5450753Y-12429960D01*
X5631705Y-12420436D02*
X5641229Y-12429960D01*
X5641229Y-12429960D02*
X5631705Y-12439484D01*
X5631705Y-12439484D02*
X5622182Y-12429960D01*
X5622182Y-12429960D02*
X5631705Y-12420436D01*
X5631705Y-12420436D02*
X5631705Y-12439484D01*
X5631705Y-12315674D02*
X5641229Y-12325198D01*
X5641229Y-12325198D02*
X5631705Y-12334722D01*
X5631705Y-12334722D02*
X5622182Y-12325198D01*
X5622182Y-12325198D02*
X5631705Y-12315674D01*
X5631705Y-12315674D02*
X5631705Y-12334722D01*
M02*
