%TF.GenerationSoftware,KiCad,Pcbnew,7.0.6*%
%TF.CreationDate,2024-02-05T15:04:15-06:00*%
%TF.ProjectId,TopProbeCard,546f7050-726f-4626-9543-6172642e6b69,rev?*%
%TF.SameCoordinates,Original*%
%TF.FileFunction,Profile,NP*%
%FSLAX46Y46*%
G04 Gerber Fmt 4.6, Leading zero omitted, Abs format (unit mm)*
G04 Created by KiCad (PCBNEW 7.0.6) date 2024-02-05 15:04:15*
%MOMM*%
%LPD*%
G01*
G04 APERTURE LIST*
%TA.AperFunction,Profile*%
%ADD10C,0.100000*%
%TD*%
%TA.AperFunction,Profile*%
%ADD11C,0.010000*%
%TD*%
G04 APERTURE END LIST*
D10*
X84000000Y-34724999D02*
X84000000Y-37724999D01*
D11*
X110000000Y-106274999D02*
X110000000Y-53724999D01*
D10*
X85000000Y-38724999D02*
X95000000Y-38724999D01*
D11*
X55000000Y-38725000D02*
G75*
G03*
X40000000Y-53724999I-10J-14999990D01*
G01*
X56188560Y-63709245D02*
G75*
G03*
X57342302Y-62465298I188540J982145D01*
G01*
X57623280Y-61474068D02*
G75*
G03*
X57342304Y-62465298I684020J-729332D01*
G01*
X57581950Y-112749999D02*
G75*
G03*
X57581950Y-112749999I-1631950J0D01*
G01*
D10*
X84000001Y-37724999D02*
G75*
G03*
X85000000Y-38724999I1000099J99D01*
G01*
D11*
X76631950Y-47249999D02*
G75*
G03*
X76631950Y-47249999I-1631950J0D01*
G01*
D10*
X67000000Y-33724999D02*
X83000000Y-33724999D01*
D11*
X95681950Y-47249999D02*
G75*
G03*
X95681950Y-47249999I-1631950J0D01*
G01*
X92804684Y-61884999D02*
X92804684Y-98114999D01*
X76631950Y-112749999D02*
G75*
G03*
X76631950Y-112749999I-1631950J0D01*
G01*
X56188564Y-63709224D02*
G75*
G03*
X55221251Y-64063844I-188664J-981976D01*
G01*
D10*
X67000000Y-33725000D02*
G75*
G03*
X66000000Y-34724999I0J-1000000D01*
G01*
X65000000Y-38724999D02*
X55000000Y-38724999D01*
X65000000Y-38725000D02*
G75*
G03*
X66000000Y-37724999I0J1000000D01*
G01*
D11*
X92804684Y-61884999D02*
G75*
G03*
X57623287Y-61474075I-17804684J-18115001D01*
G01*
X55221252Y-64063845D02*
G75*
G03*
X59490431Y-100114998I19778748J-15936155D01*
G01*
X57581950Y-47249999D02*
G75*
G03*
X57581950Y-47249999I-1631950J0D01*
G01*
X95681950Y-112749999D02*
G75*
G03*
X95681950Y-112749999I-1631950J0D01*
G01*
X90509572Y-100115001D02*
G75*
G03*
X92804684Y-98114999I-15509772J20115201D01*
G01*
X40000000Y-53724999D02*
X40000000Y-106274999D01*
D10*
X84000001Y-34724999D02*
G75*
G03*
X83000000Y-33724999I-999901J99D01*
G01*
D11*
X90509570Y-100114999D02*
X59490430Y-100114999D01*
X110000001Y-53724999D02*
G75*
G03*
X95000000Y-38724999I-14999941J59D01*
G01*
X55000000Y-121274999D02*
X95000000Y-121274999D01*
X95000000Y-121275000D02*
G75*
G03*
X110000000Y-106274999I-20J15000020D01*
G01*
D10*
X66000000Y-37724999D02*
X66000000Y-34724999D01*
D11*
X40000001Y-106274999D02*
G75*
G03*
X55000000Y-121274999I15000059J59D01*
G01*
M02*
