%TF.GenerationSoftware,KiCad,Pcbnew,7.0.10*%
%TF.CreationDate,2024-02-20T11:06:14-06:00*%
%TF.ProjectId,BottomProbeCard,426f7474-6f6d-4507-926f-626543617264,rev?*%
%TF.SameCoordinates,Original*%
%TF.FileFunction,Drillmap*%
%TF.FilePolarity,Positive*%
%FSLAX45Y45*%
G04 Gerber Fmt 4.5, Leading zero omitted, Abs format (unit mm)*
G04 Created by KiCad (PCBNEW 7.0.10) date 2024-02-20 11:06:14*
%MOMM*%
%LPD*%
G01*
G04 APERTURE LIST*
%ADD10C,0.150000*%
%ADD11C,0.100000*%
%ADD12C,0.200000*%
%ADD13C,0.010000*%
G04 APERTURE END LIST*
D10*
X5292906Y-9787271D02*
G75*
G03*
X5526050Y-9598475I116573J94397D01*
G01*
D11*
X6600000Y-3772499D02*
X6600000Y-3472499D01*
D10*
X9707094Y-6212729D02*
G75*
G03*
X9473950Y-6401525I-116573J-94397D01*
G01*
D12*
X7950000Y-3722501D02*
G75*
G03*
X7950000Y-3522499I0J100001D01*
G01*
D10*
X9098473Y-6026048D02*
G75*
G03*
X9287269Y-5792905I94397J116572D01*
G01*
D12*
X7050000Y-3522501D02*
G75*
G03*
X7050000Y-3722499I0J-99999D01*
G01*
D10*
X4694969Y-8444275D02*
G75*
G03*
X4991271Y-8397345I148152J23465D01*
G01*
X6482236Y-10651370D02*
G75*
G03*
X6589746Y-10371295I53757J140037D01*
G01*
D13*
X5500000Y-12127499D02*
X9500000Y-12127499D01*
D10*
X9287269Y-5792904D02*
G75*
G03*
X8517764Y-5348631I-1787269J-2207096D01*
G01*
X5901527Y-9973952D02*
G75*
G03*
X5712731Y-10207095I-94397J-116572D01*
G01*
X5128708Y-8910255D02*
G75*
G03*
X4848632Y-9017766I-140038J-53755D01*
G01*
X6589744Y-5628706D02*
G75*
G03*
X5901525Y-6026050I910256J-2371294D01*
G01*
X5901528Y-9973951D02*
G75*
G03*
X6589746Y-10371295I1598472J1973941D01*
G01*
X9098472Y-6026049D02*
G75*
G03*
X8410254Y-5628705I-1598472J-1973941D01*
G01*
D13*
X4000001Y-10627499D02*
G75*
G03*
X5500000Y-12127499I1499999J-1D01*
G01*
D10*
X5526050Y-6401528D02*
G75*
G03*
X5128705Y-7089746I1973940J-1598472D01*
G01*
X10305032Y-7555725D02*
G75*
G03*
X10008729Y-7602655I-148152J-23465D01*
G01*
D13*
X9500000Y-12127499D02*
G75*
G03*
X11000000Y-10627499I0J1500000D01*
G01*
X5500000Y-3872499D02*
G75*
G03*
X4000000Y-5372499I0J-1500000D01*
G01*
D10*
X7102658Y-10508726D02*
G75*
G03*
X7055727Y-10805035I-23468J-148154D01*
G01*
X4848634Y-6982237D02*
G75*
G03*
X5128705Y-7089746I140036J-53753D01*
G01*
X7055727Y-10805035D02*
G75*
G03*
X7944275Y-10805035I444274J2805036D01*
G01*
X5526053Y-6401531D02*
G75*
G03*
X5292905Y-6212731I-116573J94401D01*
G01*
X7102658Y-10508728D02*
G75*
G03*
X7897345Y-10508728I397344J2508729D01*
G01*
X6482234Y-5348632D02*
G75*
G03*
X5712729Y-5792906I1017766J-2651368D01*
G01*
D13*
X9642000Y-7999999D02*
G75*
G03*
X5358000Y-7999999I-2142000J0D01*
G01*
X5358000Y-7999999D02*
G75*
G03*
X9642000Y-7999999I2142000J0D01*
G01*
X9568195Y-4724999D02*
G75*
G03*
X9241805Y-4724999I-163195J0D01*
G01*
X9241805Y-4724999D02*
G75*
G03*
X9568195Y-4724999I163195J0D01*
G01*
D10*
X7055725Y-5194969D02*
G75*
G03*
X7102655Y-5491271I23465J-148152D01*
G01*
D11*
X6500000Y-3872500D02*
G75*
G03*
X6600000Y-3772499I0J100000D01*
G01*
D13*
X4000000Y-5372499D02*
X4000000Y-10627499D01*
D10*
X9707096Y-9787269D02*
G75*
G03*
X10151369Y-9017764I-2207096J1787269D01*
G01*
X5292905Y-6212731D02*
G75*
G03*
X4848631Y-6982236I2207095J-1787269D01*
G01*
D12*
X7950000Y-3722499D02*
X7050000Y-3722499D01*
D10*
X7897342Y-5491272D02*
G75*
G03*
X7102655Y-5491272I-397344J-2508729D01*
G01*
D11*
X6700000Y-3372499D02*
X8300000Y-3372499D01*
D10*
X4991274Y-7602658D02*
G75*
G03*
X4694965Y-7555727I-148154J23468D01*
G01*
X7897342Y-5491274D02*
G75*
G03*
X7944273Y-5194965I23468J148154D01*
G01*
X5128706Y-8910256D02*
G75*
G03*
X5526050Y-9598475I2371294J910256D01*
G01*
X10008726Y-8397342D02*
G75*
G03*
X10305035Y-8444273I148154J-23468D01*
G01*
X9287267Y-10207089D02*
G75*
G03*
X9098475Y-9973950I-94397J116569D01*
G01*
X10151366Y-9017763D02*
G75*
G03*
X9871295Y-8910254I-140036J53753D01*
G01*
D11*
X6500000Y-3872499D02*
X5500000Y-3872499D01*
D10*
X9473947Y-9598469D02*
G75*
G03*
X9707095Y-9787269I116573J-94401D01*
G01*
D11*
X8400000Y-3472499D02*
X8400000Y-3772499D01*
D10*
X4694965Y-7555727D02*
G75*
G03*
X4694965Y-8444275I2805036J-444274D01*
G01*
D13*
X7663195Y-4724999D02*
G75*
G03*
X7336805Y-4724999I-163195J0D01*
G01*
X7336805Y-4724999D02*
G75*
G03*
X7663195Y-4724999I163195J0D01*
G01*
D11*
X8400001Y-3772499D02*
G75*
G03*
X8500000Y-3872499I99999J-1D01*
G01*
D13*
X5758195Y-11274999D02*
G75*
G03*
X5431805Y-11274999I-163195J0D01*
G01*
X5431805Y-11274999D02*
G75*
G03*
X5758195Y-11274999I163195J0D01*
G01*
D12*
X7050000Y-3522499D02*
X7950000Y-3522499D01*
D10*
X10305035Y-8444273D02*
G75*
G03*
X10305035Y-7555725I-2805036J444274D01*
G01*
X8517766Y-10651368D02*
G75*
G03*
X9287271Y-10207094I-1017766J2651368D01*
G01*
X10008729Y-8397342D02*
G75*
G03*
X10008728Y-7602655I-2508730J397343D01*
G01*
D13*
X11000000Y-10627499D02*
X11000000Y-5372499D01*
X5758195Y-4724999D02*
G75*
G03*
X5431805Y-4724999I-163195J0D01*
G01*
X5431805Y-4724999D02*
G75*
G03*
X5758195Y-4724999I163195J0D01*
G01*
D11*
X8400001Y-3472499D02*
G75*
G03*
X8300000Y-3372499I-100001J-1D01*
G01*
D10*
X4848632Y-9017766D02*
G75*
G03*
X5292906Y-9787271I2651368J1017766D01*
G01*
X8517763Y-5348634D02*
G75*
G03*
X8410254Y-5628705I-53753J-140036D01*
G01*
X10151368Y-6982234D02*
G75*
G03*
X9707094Y-6212729I-2651368J-1017766D01*
G01*
X6589745Y-5628708D02*
G75*
G03*
X6482234Y-5348632I-53755J140038D01*
G01*
D13*
X11000001Y-5372499D02*
G75*
G03*
X9500000Y-3872499I-1500001J-1D01*
G01*
D10*
X5712731Y-10207096D02*
G75*
G03*
X6482236Y-10651369I1787269J2207096D01*
G01*
X5712733Y-5792911D02*
G75*
G03*
X5901525Y-6026050I94397J-116569D01*
G01*
X7944275Y-10805032D02*
G75*
G03*
X7897345Y-10508729I-23465J148152D01*
G01*
X4991272Y-7602658D02*
G75*
G03*
X4991272Y-8397345I2508729J-397343D01*
G01*
D13*
X9568195Y-11274999D02*
G75*
G03*
X9241805Y-11274999I-163195J0D01*
G01*
X9241805Y-11274999D02*
G75*
G03*
X9568195Y-11274999I163195J0D01*
G01*
D11*
X6700000Y-3372500D02*
G75*
G03*
X6600000Y-3472499I0J-100000D01*
G01*
D10*
X9473951Y-9598472D02*
G75*
G03*
X9871295Y-8910254I-1973941J1598472D01*
G01*
D13*
X7663195Y-11274999D02*
G75*
G03*
X7336805Y-11274999I-163195J0D01*
G01*
X7336805Y-11274999D02*
G75*
G03*
X7663195Y-11274999I163195J0D01*
G01*
D10*
X8410255Y-10371292D02*
G75*
G03*
X8517766Y-10651368I53755J-140038D01*
G01*
D11*
X8500000Y-3872499D02*
X9500000Y-3872499D01*
D10*
X7944273Y-5194965D02*
G75*
G03*
X7055725Y-5194965I-444274J-2805036D01*
G01*
X8410256Y-10371294D02*
G75*
G03*
X9098475Y-9973950I-910256J2371294D01*
G01*
X9871294Y-7089744D02*
G75*
G03*
X9473950Y-6401525I-2371294J-910256D01*
G01*
X9871292Y-7089745D02*
G75*
G03*
X10151368Y-6982234I140038J53755D01*
G01*
D12*
X4260277Y-12439482D02*
X4260277Y-12239482D01*
X4260277Y-12239482D02*
X4307896Y-12239482D01*
X4307896Y-12239482D02*
X4336467Y-12249006D01*
X4336467Y-12249006D02*
X4355515Y-12268054D01*
X4355515Y-12268054D02*
X4365039Y-12287101D01*
X4365039Y-12287101D02*
X4374563Y-12325197D01*
X4374563Y-12325197D02*
X4374563Y-12353768D01*
X4374563Y-12353768D02*
X4365039Y-12391863D01*
X4365039Y-12391863D02*
X4355515Y-12410911D01*
X4355515Y-12410911D02*
X4336467Y-12429959D01*
X4336467Y-12429959D02*
X4307896Y-12439482D01*
X4307896Y-12439482D02*
X4260277Y-12439482D01*
X4460277Y-12439482D02*
X4460277Y-12306149D01*
X4460277Y-12344244D02*
X4469801Y-12325197D01*
X4469801Y-12325197D02*
X4479324Y-12315673D01*
X4479324Y-12315673D02*
X4498372Y-12306149D01*
X4498372Y-12306149D02*
X4517420Y-12306149D01*
X4584086Y-12439482D02*
X4584086Y-12306149D01*
X4584086Y-12239482D02*
X4574563Y-12249006D01*
X4574563Y-12249006D02*
X4584086Y-12258530D01*
X4584086Y-12258530D02*
X4593610Y-12249006D01*
X4593610Y-12249006D02*
X4584086Y-12239482D01*
X4584086Y-12239482D02*
X4584086Y-12258530D01*
X4707896Y-12439482D02*
X4688848Y-12429959D01*
X4688848Y-12429959D02*
X4679324Y-12410911D01*
X4679324Y-12410911D02*
X4679324Y-12239482D01*
X4812658Y-12439482D02*
X4793610Y-12429959D01*
X4793610Y-12429959D02*
X4784086Y-12410911D01*
X4784086Y-12410911D02*
X4784086Y-12239482D01*
X5041229Y-12439482D02*
X5041229Y-12239482D01*
X5041229Y-12239482D02*
X5107896Y-12382340D01*
X5107896Y-12382340D02*
X5174563Y-12239482D01*
X5174563Y-12239482D02*
X5174563Y-12439482D01*
X5355515Y-12439482D02*
X5355515Y-12334721D01*
X5355515Y-12334721D02*
X5345991Y-12315673D01*
X5345991Y-12315673D02*
X5326944Y-12306149D01*
X5326944Y-12306149D02*
X5288848Y-12306149D01*
X5288848Y-12306149D02*
X5269801Y-12315673D01*
X5355515Y-12429959D02*
X5336467Y-12439482D01*
X5336467Y-12439482D02*
X5288848Y-12439482D01*
X5288848Y-12439482D02*
X5269801Y-12429959D01*
X5269801Y-12429959D02*
X5260277Y-12410911D01*
X5260277Y-12410911D02*
X5260277Y-12391863D01*
X5260277Y-12391863D02*
X5269801Y-12372816D01*
X5269801Y-12372816D02*
X5288848Y-12363292D01*
X5288848Y-12363292D02*
X5336467Y-12363292D01*
X5336467Y-12363292D02*
X5355515Y-12353768D01*
X5450753Y-12306149D02*
X5450753Y-12506149D01*
X5450753Y-12315673D02*
X5469801Y-12306149D01*
X5469801Y-12306149D02*
X5507896Y-12306149D01*
X5507896Y-12306149D02*
X5526944Y-12315673D01*
X5526944Y-12315673D02*
X5536467Y-12325197D01*
X5536467Y-12325197D02*
X5545991Y-12344244D01*
X5545991Y-12344244D02*
X5545991Y-12401387D01*
X5545991Y-12401387D02*
X5536467Y-12420435D01*
X5536467Y-12420435D02*
X5526944Y-12429959D01*
X5526944Y-12429959D02*
X5507896Y-12439482D01*
X5507896Y-12439482D02*
X5469801Y-12439482D01*
X5469801Y-12439482D02*
X5450753Y-12429959D01*
X5631705Y-12420435D02*
X5641229Y-12429959D01*
X5641229Y-12429959D02*
X5631705Y-12439482D01*
X5631705Y-12439482D02*
X5622182Y-12429959D01*
X5622182Y-12429959D02*
X5631705Y-12420435D01*
X5631705Y-12420435D02*
X5631705Y-12439482D01*
X5631705Y-12315673D02*
X5641229Y-12325197D01*
X5641229Y-12325197D02*
X5631705Y-12334721D01*
X5631705Y-12334721D02*
X5622182Y-12325197D01*
X5622182Y-12325197D02*
X5631705Y-12315673D01*
X5631705Y-12315673D02*
X5631705Y-12334721D01*
M02*
